<svg width="440" height="450" viewBox="0 0 440 450" fill="none" xmlns="http://www.w3.org/2000/svg">
<rect width="440" height="440" fill="white"/>
<g opacity="0.6">
<rect x="75" y="75" width="290" height="290" rx="145" stroke="#A7E6FF" stroke-width="10"/>
<path d="M220 227.803C213.811 227.803 207.876 230.262 203.501 234.637C199.125 239.013 196.666 244.948 196.666 251.137C196.666 257.325 199.125 263.26 203.501 267.636C207.876 272.012 213.811 274.47 220 274.47C226.188 274.47 232.123 272.012 236.499 267.636C240.875 263.26 243.333 257.325 243.333 251.137C243.333 244.948 240.875 239.013 236.499 234.637C232.123 230.262 226.188 227.803 220 227.803ZM210 251.137C210 248.484 211.053 245.941 212.929 244.066C214.804 242.19 217.348 241.137 220 241.137C222.652 241.137 225.195 242.19 227.071 244.066C228.946 245.941 230 248.484 230 251.137C230 253.789 228.946 256.332 227.071 258.208C225.195 260.083 222.652 261.137 220 261.137C217.348 261.137 214.804 260.083 212.929 258.208C211.053 256.332 210 253.789 210 251.137Z" fill="#A7E6FF"/>
<path d="M256.84 178.577L235.647 148.863L157.72 211.117L153.4 211.07V211.137H150V291.137H290V211.137H283.587L270.827 173.81L256.84 178.577ZM269.5 211.137H202.647L252.44 194.163L262.587 190.917L269.5 211.137ZM243.667 183.07L192.267 200.59L232.973 168.07L243.667 183.07ZM163.333 265.597V236.663C166.148 235.67 168.704 234.059 170.815 231.949C172.926 229.84 174.538 227.284 175.533 224.47H264.467C265.461 227.285 267.072 229.842 269.183 231.953C271.295 234.064 273.851 235.676 276.667 236.67V265.603C273.851 266.597 271.295 268.209 269.183 270.32C267.072 272.431 265.461 274.988 264.467 277.803H175.547C174.548 274.988 172.933 272.431 170.82 270.319C168.707 268.207 166.149 266.594 163.333 265.597Z" fill="#A7E6FF"/>
</g>
<g filter="url(#filter0_d_15_125)">
<mask id="path-5-outside-1_15_125" maskUnits="userSpaceOnUse" x="318.602" y="303.884" width="107.796" height="121.231" fill="black">
<rect fill="white" x="318.602" y="303.884" width="107.796" height="121.231"/>
<path fill-rule="evenodd" clip-rule="evenodd" d="M356.235 319.682C357.425 319.364 358.647 320.069 358.965 321.259C359.284 322.448 360.527 323.148 361.716 322.829C362.928 322.505 364.194 323.218 364.519 324.43L366.367 331.327C367.712 336.347 372.873 339.327 377.894 337.982L385.658 335.901C386.583 335.653 387.534 336.202 387.781 337.127C388.029 338.052 388.98 338.601 389.905 338.353L392.904 337.549C394.093 337.231 395.315 337.936 395.634 339.126C395.952 340.315 397.175 341.02 398.364 340.702L398.649 340.625C399.995 340.264 401.38 341.064 401.74 342.41L403.513 349.026C403.802 350.103 404.909 350.743 405.986 350.454C407.064 350.165 408.171 350.805 408.459 351.882L414.182 373.237C414.47 374.314 413.831 375.422 412.754 375.71C411.676 375.999 411.037 377.106 411.326 378.183L414.061 388.393C414.386 389.604 413.667 390.85 412.455 391.175C411.243 391.5 410.524 392.745 410.849 393.957L411.735 397.265C412.549 400.304 410.746 403.428 407.707 404.242L371.67 413.898C369.688 414.429 367.651 413.253 367.12 411.271L366.616 409.389C366.363 408.447 365.394 407.887 364.452 408.14C363.509 408.392 362.54 407.833 362.288 406.89L361.473 403.849C361.184 402.772 360.077 402.133 359 402.421C357.922 402.71 356.815 402.071 356.526 400.993L355.52 397.239C355.232 396.162 354.125 395.522 353.047 395.811C351.97 396.1 350.863 395.46 350.574 394.383L349.762 391.351C349.437 390.139 348.191 389.42 346.979 389.745C345.767 390.069 344.522 389.35 344.197 388.138L343.322 384.872C342.997 383.66 341.751 382.94 340.539 383.265C339.328 383.59 338.082 382.871 337.757 381.659L335.245 372.284C334.848 370.802 335.727 369.28 337.208 368.883L337.737 368.741C338.926 368.423 339.632 367.2 339.313 366.011C338.995 364.822 339.701 363.6 340.89 363.281L344.344 362.356C347.441 361.526 349.279 358.342 348.449 355.245L341.691 330.024C341.439 329.081 341.998 328.113 342.941 327.86C343.883 327.607 344.443 326.639 344.19 325.696L344.071 325.25C343.752 324.061 344.458 322.838 345.647 322.52L356.235 319.682ZM354.658 366.179C354.838 366.853 354.438 367.545 353.765 367.725C353.092 367.905 352.4 367.506 352.219 366.833L351.969 365.899C351.651 364.71 350.428 364.004 349.239 364.322L344.768 365.52C343.579 365.839 342.873 367.061 343.192 368.251C343.51 369.44 342.805 370.662 341.616 370.981L341.087 371.122C339.606 371.519 338.727 373.042 339.123 374.523L339.996 377.78C340.321 378.992 341.567 379.712 342.779 379.387C343.991 379.062 345.236 379.781 345.561 380.993L346.436 384.26C346.761 385.472 348.007 386.191 349.219 385.866C350.43 385.542 351.676 386.261 352.001 387.473L352.813 390.505C353.102 391.582 354.209 392.221 355.286 391.933C356.364 391.644 357.471 392.283 357.76 393.361L358.766 397.115C359.054 398.192 360.162 398.832 361.239 398.543C362.316 398.254 363.423 398.894 363.712 399.971L364.527 403.012C364.779 403.955 365.748 404.514 366.691 404.261C367.633 404.009 368.602 404.568 368.855 405.511L369.359 407.393C369.89 409.375 371.927 410.551 373.909 410.02L403.829 402.003C406.867 401.188 408.671 398.065 407.857 395.026L406.97 391.718C406.646 390.506 407.365 389.26 408.577 388.936C409.788 388.611 410.508 387.365 410.183 386.153L407.447 375.944C407.159 374.867 407.798 373.76 408.875 373.471C409.953 373.182 410.592 372.075 410.303 370.998L406.22 355.76C405.932 354.683 404.824 354.044 403.747 354.332C402.67 354.621 401.563 353.982 401.274 352.905L399.501 346.289C399.14 344.942 397.756 344.143 396.41 344.504L396.125 344.58C394.936 344.899 393.713 344.193 393.395 343.004C393.076 341.815 391.854 341.109 390.665 341.428L387.666 342.231C386.741 342.479 385.79 341.93 385.542 341.005C385.294 340.081 384.344 339.532 383.419 339.779L378.469 341.106C377.28 341.424 376.574 342.647 376.893 343.836L377.078 344.526C377.295 345.334 376.815 346.164 376.007 346.381C375.199 346.597 374.369 346.118 374.152 345.31L373.967 344.62C373.649 343.431 372.426 342.725 371.237 343.044L369.977 343.381C368.092 343.886 366.154 342.768 365.649 340.882L362.28 328.308C361.955 327.097 360.689 326.383 359.477 326.708C358.288 327.026 357.045 326.326 356.726 325.137C356.408 323.948 355.185 323.242 353.996 323.561L349.525 324.759C348.336 325.077 347.63 326.3 347.949 327.489L348.069 327.935C348.321 328.878 347.762 329.847 346.819 330.099C345.877 330.352 345.317 331.321 345.57 332.263L354.658 366.179ZM351.852 371.315C351.569 370.258 350.483 369.63 349.426 369.913L347.374 370.463C345.525 370.959 344.427 372.86 344.923 374.71L345.232 375.865C345.557 377.077 346.802 377.796 348.014 377.471C349.226 377.146 350.472 377.866 350.797 379.077L351.544 381.866C351.868 383.078 353.114 383.797 354.326 383.472C355.538 383.147 356.784 383.867 357.108 385.079L358.049 388.589C358.338 389.666 359.445 390.306 360.522 390.017C361.599 389.728 362.707 390.368 362.995 391.445L363.745 394.242C364.034 395.32 365.141 395.959 366.218 395.67C367.295 395.382 368.403 396.021 368.691 397.098L369.7 400.862C369.916 401.67 370.761 402.145 371.568 401.929C372.361 401.716 373.19 402.183 373.402 402.976C373.614 403.769 374.429 404.239 375.222 404.027L399.208 397.6C401.057 397.104 402.155 395.203 401.659 393.353L401.35 392.198C401.025 390.986 401.744 389.741 402.956 389.416C404.168 389.091 404.887 387.846 404.563 386.634L401.699 375.946C401.41 374.869 402.05 373.762 403.127 373.473C404.204 373.184 404.843 372.077 404.555 371L401.113 358.155C400.824 357.077 399.717 356.438 398.64 356.727C397.562 357.015 396.455 356.376 396.166 355.299L394.067 347.464C393.887 346.79 393.195 346.391 392.521 346.571C391.848 346.752 391.448 347.444 391.629 348.117L392.378 350.914C392.775 352.396 391.896 353.918 390.415 354.315C388.934 354.712 387.411 353.833 387.015 352.352L385.825 347.912C385.392 346.296 383.731 345.337 382.115 345.77C380.499 346.203 379.54 347.864 379.973 349.48L381.163 353.92C381.56 355.401 380.681 356.923 379.2 357.32C377.718 357.717 376.196 356.838 375.799 355.357L374.609 350.917C374.176 349.301 372.516 348.342 370.9 348.775C369.284 349.208 368.325 350.869 368.758 352.485L369.948 356.925C370.344 358.406 369.465 359.928 367.984 360.325C366.503 360.722 364.981 359.843 364.584 358.362L357.368 331.434C356.935 329.818 355.274 328.859 353.659 329.292C352.043 329.725 351.084 331.386 351.517 333.002L362.835 375.241C363.231 376.722 362.352 378.245 360.871 378.641C359.39 379.038 357.868 378.159 357.471 376.678L356.789 374.134C356.5 373.056 355.374 372.422 354.297 372.711C353.24 372.994 352.136 372.372 351.852 371.315ZM349.178 373.569C349.135 373.409 348.97 373.314 348.81 373.357L348.194 373.522C348.034 373.565 347.938 373.73 347.981 373.89C348.024 374.051 348.189 374.146 348.35 374.103L348.966 373.938C349.126 373.895 349.221 373.73 349.178 373.569ZM353.672 376.156C353.477 376.209 353.36 376.41 353.413 376.606L354.276 379.827C354.328 380.023 354.53 380.139 354.726 380.087C354.921 380.034 355.038 379.833 354.985 379.637L354.122 376.416C354.07 376.22 353.868 376.104 353.672 376.156ZM361.834 381.662C360.616 381.988 359.894 383.239 360.22 384.457L360.288 384.711C360.577 385.788 361.684 386.427 362.761 386.139C363.839 385.85 364.946 386.489 365.235 387.567L365.984 390.364C366.273 391.441 367.38 392.081 368.457 391.792C369.535 391.503 370.642 392.143 370.93 393.22L371.939 396.983C372.155 397.791 373 398.267 373.808 398.051C374.6 397.838 375.429 398.305 375.641 399.098C375.854 399.89 376.668 400.361 377.461 400.148L395.329 395.361C397.179 394.865 398.277 392.964 397.781 391.114L397.472 389.959C397.147 388.747 397.866 387.502 399.078 387.177C400.29 386.852 401.009 385.606 400.684 384.395L397.821 373.707C397.532 372.63 398.171 371.522 399.248 371.234C400.326 370.945 400.965 369.838 400.676 368.761L398.874 362.033C398.585 360.956 397.478 360.316 396.4 360.605C395.323 360.894 394.216 360.254 393.927 359.177L393.873 358.975C393.554 357.785 392.332 357.08 391.143 357.398L370.985 362.8C366.757 363.933 364.247 368.279 365.38 372.507L366.386 376.261C366.964 378.415 365.685 380.63 363.531 381.207L361.834 381.662Z"/>
</mask>
<path fill-rule="evenodd" clip-rule="evenodd" d="M356.235 319.682C357.425 319.364 358.647 320.069 358.965 321.259C359.284 322.448 360.527 323.148 361.716 322.829C362.928 322.505 364.194 323.218 364.519 324.43L366.367 331.327C367.712 336.347 372.873 339.327 377.894 337.982L385.658 335.901C386.583 335.653 387.534 336.202 387.781 337.127C388.029 338.052 388.98 338.601 389.905 338.353L392.904 337.549C394.093 337.231 395.315 337.936 395.634 339.126C395.952 340.315 397.175 341.02 398.364 340.702L398.649 340.625C399.995 340.264 401.38 341.064 401.74 342.41L403.513 349.026C403.802 350.103 404.909 350.743 405.986 350.454C407.064 350.165 408.171 350.805 408.459 351.882L414.182 373.237C414.47 374.314 413.831 375.422 412.754 375.71C411.676 375.999 411.037 377.106 411.326 378.183L414.061 388.393C414.386 389.604 413.667 390.85 412.455 391.175C411.243 391.5 410.524 392.745 410.849 393.957L411.735 397.265C412.549 400.304 410.746 403.428 407.707 404.242L371.67 413.898C369.688 414.429 367.651 413.253 367.12 411.271L366.616 409.389C366.363 408.447 365.394 407.887 364.452 408.14C363.509 408.392 362.54 407.833 362.288 406.89L361.473 403.849C361.184 402.772 360.077 402.133 359 402.421C357.922 402.71 356.815 402.071 356.526 400.993L355.52 397.239C355.232 396.162 354.125 395.522 353.047 395.811C351.97 396.1 350.863 395.46 350.574 394.383L349.762 391.351C349.437 390.139 348.191 389.42 346.979 389.745C345.767 390.069 344.522 389.35 344.197 388.138L343.322 384.872C342.997 383.66 341.751 382.94 340.539 383.265C339.328 383.59 338.082 382.871 337.757 381.659L335.245 372.284C334.848 370.802 335.727 369.28 337.208 368.883L337.737 368.741C338.926 368.423 339.632 367.2 339.313 366.011C338.995 364.822 339.701 363.6 340.89 363.281L344.344 362.356C347.441 361.526 349.279 358.342 348.449 355.245L341.691 330.024C341.439 329.081 341.998 328.113 342.941 327.86C343.883 327.607 344.443 326.639 344.19 325.696L344.071 325.25C343.752 324.061 344.458 322.838 345.647 322.52L356.235 319.682ZM354.658 366.179C354.838 366.853 354.438 367.545 353.765 367.725C353.092 367.905 352.4 367.506 352.219 366.833L351.969 365.899C351.651 364.71 350.428 364.004 349.239 364.322L344.768 365.52C343.579 365.839 342.873 367.061 343.192 368.251C343.51 369.44 342.805 370.662 341.616 370.981L341.087 371.122C339.606 371.519 338.727 373.042 339.123 374.523L339.996 377.78C340.321 378.992 341.567 379.712 342.779 379.387C343.991 379.062 345.236 379.781 345.561 380.993L346.436 384.26C346.761 385.472 348.007 386.191 349.219 385.866C350.43 385.542 351.676 386.261 352.001 387.473L352.813 390.505C353.102 391.582 354.209 392.221 355.286 391.933C356.364 391.644 357.471 392.283 357.76 393.361L358.766 397.115C359.054 398.192 360.162 398.832 361.239 398.543C362.316 398.254 363.423 398.894 363.712 399.971L364.527 403.012C364.779 403.955 365.748 404.514 366.691 404.261C367.633 404.009 368.602 404.568 368.855 405.511L369.359 407.393C369.89 409.375 371.927 410.551 373.909 410.02L403.829 402.003C406.867 401.188 408.671 398.065 407.857 395.026L406.97 391.718C406.646 390.506 407.365 389.26 408.577 388.936C409.788 388.611 410.508 387.365 410.183 386.153L407.447 375.944C407.159 374.867 407.798 373.76 408.875 373.471C409.953 373.182 410.592 372.075 410.303 370.998L406.22 355.76C405.932 354.683 404.824 354.044 403.747 354.332C402.67 354.621 401.563 353.982 401.274 352.905L399.501 346.289C399.14 344.942 397.756 344.143 396.41 344.504L396.125 344.58C394.936 344.899 393.713 344.193 393.395 343.004C393.076 341.815 391.854 341.109 390.665 341.428L387.666 342.231C386.741 342.479 385.79 341.93 385.542 341.005C385.294 340.081 384.344 339.532 383.419 339.779L378.469 341.106C377.28 341.424 376.574 342.647 376.893 343.836L377.078 344.526C377.295 345.334 376.815 346.164 376.007 346.381C375.199 346.597 374.369 346.118 374.152 345.31L373.967 344.62C373.649 343.431 372.426 342.725 371.237 343.044L369.977 343.381C368.092 343.886 366.154 342.768 365.649 340.882L362.28 328.308C361.955 327.097 360.689 326.383 359.477 326.708C358.288 327.026 357.045 326.326 356.726 325.137C356.408 323.948 355.185 323.242 353.996 323.561L349.525 324.759C348.336 325.077 347.63 326.3 347.949 327.489L348.069 327.935C348.321 328.878 347.762 329.847 346.819 330.099C345.877 330.352 345.317 331.321 345.57 332.263L354.658 366.179ZM351.852 371.315C351.569 370.258 350.483 369.63 349.426 369.913L347.374 370.463C345.525 370.959 344.427 372.86 344.923 374.71L345.232 375.865C345.557 377.077 346.802 377.796 348.014 377.471C349.226 377.146 350.472 377.866 350.797 379.077L351.544 381.866C351.868 383.078 353.114 383.797 354.326 383.472C355.538 383.147 356.784 383.867 357.108 385.079L358.049 388.589C358.338 389.666 359.445 390.306 360.522 390.017C361.599 389.728 362.707 390.368 362.995 391.445L363.745 394.242C364.034 395.32 365.141 395.959 366.218 395.67C367.295 395.382 368.403 396.021 368.691 397.098L369.7 400.862C369.916 401.67 370.761 402.145 371.568 401.929C372.361 401.716 373.19 402.183 373.402 402.976C373.614 403.769 374.429 404.239 375.222 404.027L399.208 397.6C401.057 397.104 402.155 395.203 401.659 393.353L401.35 392.198C401.025 390.986 401.744 389.741 402.956 389.416C404.168 389.091 404.887 387.846 404.563 386.634L401.699 375.946C401.41 374.869 402.05 373.762 403.127 373.473C404.204 373.184 404.843 372.077 404.555 371L401.113 358.155C400.824 357.077 399.717 356.438 398.64 356.727C397.562 357.015 396.455 356.376 396.166 355.299L394.067 347.464C393.887 346.79 393.195 346.391 392.521 346.571C391.848 346.752 391.448 347.444 391.629 348.117L392.378 350.914C392.775 352.396 391.896 353.918 390.415 354.315C388.934 354.712 387.411 353.833 387.015 352.352L385.825 347.912C385.392 346.296 383.731 345.337 382.115 345.77C380.499 346.203 379.54 347.864 379.973 349.48L381.163 353.92C381.56 355.401 380.681 356.923 379.2 357.32C377.718 357.717 376.196 356.838 375.799 355.357L374.609 350.917C374.176 349.301 372.516 348.342 370.9 348.775C369.284 349.208 368.325 350.869 368.758 352.485L369.948 356.925C370.344 358.406 369.465 359.928 367.984 360.325C366.503 360.722 364.981 359.843 364.584 358.362L357.368 331.434C356.935 329.818 355.274 328.859 353.659 329.292C352.043 329.725 351.084 331.386 351.517 333.002L362.835 375.241C363.231 376.722 362.352 378.245 360.871 378.641C359.39 379.038 357.868 378.159 357.471 376.678L356.789 374.134C356.5 373.056 355.374 372.422 354.297 372.711C353.24 372.994 352.136 372.372 351.852 371.315ZM349.178 373.569C349.135 373.409 348.97 373.314 348.81 373.357L348.194 373.522C348.034 373.565 347.938 373.73 347.981 373.89C348.024 374.051 348.189 374.146 348.35 374.103L348.966 373.938C349.126 373.895 349.221 373.73 349.178 373.569ZM353.672 376.156C353.477 376.209 353.36 376.41 353.413 376.606L354.276 379.827C354.328 380.023 354.53 380.139 354.726 380.087C354.921 380.034 355.038 379.833 354.985 379.637L354.122 376.416C354.07 376.22 353.868 376.104 353.672 376.156ZM361.834 381.662C360.616 381.988 359.894 383.239 360.22 384.457L360.288 384.711C360.577 385.788 361.684 386.427 362.761 386.139C363.839 385.85 364.946 386.489 365.235 387.567L365.984 390.364C366.273 391.441 367.38 392.081 368.457 391.792C369.535 391.503 370.642 392.143 370.93 393.22L371.939 396.983C372.155 397.791 373 398.267 373.808 398.051C374.6 397.838 375.429 398.305 375.641 399.098C375.854 399.89 376.668 400.361 377.461 400.148L395.329 395.361C397.179 394.865 398.277 392.964 397.781 391.114L397.472 389.959C397.147 388.747 397.866 387.502 399.078 387.177C400.29 386.852 401.009 385.606 400.684 384.395L397.821 373.707C397.532 372.63 398.171 371.522 399.248 371.234C400.326 370.945 400.965 369.838 400.676 368.761L398.874 362.033C398.585 360.956 397.478 360.316 396.4 360.605C395.323 360.894 394.216 360.254 393.927 359.177L393.873 358.975C393.554 357.785 392.332 357.08 391.143 357.398L370.985 362.8C366.757 363.933 364.247 368.279 365.38 372.507L366.386 376.261C366.964 378.415 365.685 380.63 363.531 381.207L361.834 381.662Z" fill="white"/>
<path fill-rule="evenodd" clip-rule="evenodd" d="M356.235 319.682C357.425 319.364 358.647 320.069 358.965 321.259C359.284 322.448 360.527 323.148 361.716 322.829C362.928 322.505 364.194 323.218 364.519 324.43L366.367 331.327C367.712 336.347 372.873 339.327 377.894 337.982L385.658 335.901C386.583 335.653 387.534 336.202 387.781 337.127C388.029 338.052 388.98 338.601 389.905 338.353L392.904 337.549C394.093 337.231 395.315 337.936 395.634 339.126C395.952 340.315 397.175 341.02 398.364 340.702L398.649 340.625C399.995 340.264 401.38 341.064 401.74 342.41L403.513 349.026C403.802 350.103 404.909 350.743 405.986 350.454C407.064 350.165 408.171 350.805 408.459 351.882L414.182 373.237C414.47 374.314 413.831 375.422 412.754 375.71C411.676 375.999 411.037 377.106 411.326 378.183L414.061 388.393C414.386 389.604 413.667 390.85 412.455 391.175C411.243 391.5 410.524 392.745 410.849 393.957L411.735 397.265C412.549 400.304 410.746 403.428 407.707 404.242L371.67 413.898C369.688 414.429 367.651 413.253 367.12 411.271L366.616 409.389C366.363 408.447 365.394 407.887 364.452 408.14C363.509 408.392 362.54 407.833 362.288 406.89L361.473 403.849C361.184 402.772 360.077 402.133 359 402.421C357.922 402.71 356.815 402.071 356.526 400.993L355.52 397.239C355.232 396.162 354.125 395.522 353.047 395.811C351.97 396.1 350.863 395.46 350.574 394.383L349.762 391.351C349.437 390.139 348.191 389.42 346.979 389.745C345.767 390.069 344.522 389.35 344.197 388.138L343.322 384.872C342.997 383.66 341.751 382.94 340.539 383.265C339.328 383.59 338.082 382.871 337.757 381.659L335.245 372.284C334.848 370.802 335.727 369.28 337.208 368.883L337.737 368.741C338.926 368.423 339.632 367.2 339.313 366.011C338.995 364.822 339.701 363.6 340.89 363.281L344.344 362.356C347.441 361.526 349.279 358.342 348.449 355.245L341.691 330.024C341.439 329.081 341.998 328.113 342.941 327.86C343.883 327.607 344.443 326.639 344.19 325.696L344.071 325.25C343.752 324.061 344.458 322.838 345.647 322.52L356.235 319.682ZM354.658 366.179C354.838 366.853 354.438 367.545 353.765 367.725C353.092 367.905 352.4 367.506 352.219 366.833L351.969 365.899C351.651 364.71 350.428 364.004 349.239 364.322L344.768 365.52C343.579 365.839 342.873 367.061 343.192 368.251C343.51 369.44 342.805 370.662 341.616 370.981L341.087 371.122C339.606 371.519 338.727 373.042 339.123 374.523L339.996 377.78C340.321 378.992 341.567 379.712 342.779 379.387C343.991 379.062 345.236 379.781 345.561 380.993L346.436 384.26C346.761 385.472 348.007 386.191 349.219 385.866C350.43 385.542 351.676 386.261 352.001 387.473L352.813 390.505C353.102 391.582 354.209 392.221 355.286 391.933C356.364 391.644 357.471 392.283 357.76 393.361L358.766 397.115C359.054 398.192 360.162 398.832 361.239 398.543C362.316 398.254 363.423 398.894 363.712 399.971L364.527 403.012C364.779 403.955 365.748 404.514 366.691 404.261C367.633 404.009 368.602 404.568 368.855 405.511L369.359 407.393C369.89 409.375 371.927 410.551 373.909 410.02L403.829 402.003C406.867 401.188 408.671 398.065 407.857 395.026L406.97 391.718C406.646 390.506 407.365 389.26 408.577 388.936C409.788 388.611 410.508 387.365 410.183 386.153L407.447 375.944C407.159 374.867 407.798 373.76 408.875 373.471C409.953 373.182 410.592 372.075 410.303 370.998L406.22 355.76C405.932 354.683 404.824 354.044 403.747 354.332C402.67 354.621 401.563 353.982 401.274 352.905L399.501 346.289C399.14 344.942 397.756 344.143 396.41 344.504L396.125 344.58C394.936 344.899 393.713 344.193 393.395 343.004C393.076 341.815 391.854 341.109 390.665 341.428L387.666 342.231C386.741 342.479 385.79 341.93 385.542 341.005C385.294 340.081 384.344 339.532 383.419 339.779L378.469 341.106C377.28 341.424 376.574 342.647 376.893 343.836L377.078 344.526C377.295 345.334 376.815 346.164 376.007 346.381C375.199 346.597 374.369 346.118 374.152 345.31L373.967 344.62C373.649 343.431 372.426 342.725 371.237 343.044L369.977 343.381C368.092 343.886 366.154 342.768 365.649 340.882L362.28 328.308C361.955 327.097 360.689 326.383 359.477 326.708C358.288 327.026 357.045 326.326 356.726 325.137C356.408 323.948 355.185 323.242 353.996 323.561L349.525 324.759C348.336 325.077 347.63 326.3 347.949 327.489L348.069 327.935C348.321 328.878 347.762 329.847 346.819 330.099C345.877 330.352 345.317 331.321 345.57 332.263L354.658 366.179ZM351.852 371.315C351.569 370.258 350.483 369.63 349.426 369.913L347.374 370.463C345.525 370.959 344.427 372.86 344.923 374.71L345.232 375.865C345.557 377.077 346.802 377.796 348.014 377.471C349.226 377.146 350.472 377.866 350.797 379.077L351.544 381.866C351.868 383.078 353.114 383.797 354.326 383.472C355.538 383.147 356.784 383.867 357.108 385.079L358.049 388.589C358.338 389.666 359.445 390.306 360.522 390.017C361.599 389.728 362.707 390.368 362.995 391.445L363.745 394.242C364.034 395.32 365.141 395.959 366.218 395.67C367.295 395.382 368.403 396.021 368.691 397.098L369.7 400.862C369.916 401.67 370.761 402.145 371.568 401.929C372.361 401.716 373.19 402.183 373.402 402.976C373.614 403.769 374.429 404.239 375.222 404.027L399.208 397.6C401.057 397.104 402.155 395.203 401.659 393.353L401.35 392.198C401.025 390.986 401.744 389.741 402.956 389.416C404.168 389.091 404.887 387.846 404.563 386.634L401.699 375.946C401.41 374.869 402.05 373.762 403.127 373.473C404.204 373.184 404.843 372.077 404.555 371L401.113 358.155C400.824 357.077 399.717 356.438 398.64 356.727C397.562 357.015 396.455 356.376 396.166 355.299L394.067 347.464C393.887 346.79 393.195 346.391 392.521 346.571C391.848 346.752 391.448 347.444 391.629 348.117L392.378 350.914C392.775 352.396 391.896 353.918 390.415 354.315C388.934 354.712 387.411 353.833 387.015 352.352L385.825 347.912C385.392 346.296 383.731 345.337 382.115 345.77C380.499 346.203 379.54 347.864 379.973 349.48L381.163 353.92C381.56 355.401 380.681 356.923 379.2 357.32C377.718 357.717 376.196 356.838 375.799 355.357L374.609 350.917C374.176 349.301 372.516 348.342 370.9 348.775C369.284 349.208 368.325 350.869 368.758 352.485L369.948 356.925C370.344 358.406 369.465 359.928 367.984 360.325C366.503 360.722 364.981 359.843 364.584 358.362L357.368 331.434C356.935 329.818 355.274 328.859 353.659 329.292C352.043 329.725 351.084 331.386 351.517 333.002L362.835 375.241C363.231 376.722 362.352 378.245 360.871 378.641C359.39 379.038 357.868 378.159 357.471 376.678L356.789 374.134C356.5 373.056 355.374 372.422 354.297 372.711C353.24 372.994 352.136 372.372 351.852 371.315ZM349.178 373.569C349.135 373.409 348.97 373.314 348.81 373.357L348.194 373.522C348.034 373.565 347.938 373.73 347.981 373.89C348.024 374.051 348.189 374.146 348.35 374.103L348.966 373.938C349.126 373.895 349.221 373.73 349.178 373.569ZM353.672 376.156C353.477 376.209 353.36 376.41 353.413 376.606L354.276 379.827C354.328 380.023 354.53 380.139 354.726 380.087C354.921 380.034 355.038 379.833 354.985 379.637L354.122 376.416C354.07 376.22 353.868 376.104 353.672 376.156ZM361.834 381.662C360.616 381.988 359.894 383.239 360.22 384.457L360.288 384.711C360.577 385.788 361.684 386.427 362.761 386.139C363.839 385.85 364.946 386.489 365.235 387.567L365.984 390.364C366.273 391.441 367.38 392.081 368.457 391.792C369.535 391.503 370.642 392.143 370.93 393.22L371.939 396.983C372.155 397.791 373 398.267 373.808 398.051C374.6 397.838 375.429 398.305 375.641 399.098C375.854 399.89 376.668 400.361 377.461 400.148L395.329 395.361C397.179 394.865 398.277 392.964 397.781 391.114L397.472 389.959C397.147 388.747 397.866 387.502 399.078 387.177C400.29 386.852 401.009 385.606 400.684 384.395L397.821 373.707C397.532 372.63 398.171 371.522 399.248 371.234C400.326 370.945 400.965 369.838 400.676 368.761L398.874 362.033C398.585 360.956 397.478 360.316 396.4 360.605C395.323 360.894 394.216 360.254 393.927 359.177L393.873 358.975C393.554 357.785 392.332 357.08 391.143 357.398L370.985 362.8C366.757 363.933 364.247 368.279 365.38 372.507L366.386 376.261C366.964 378.415 365.685 380.63 363.531 381.207L361.834 381.662Z" stroke="white" stroke-width="8" mask="url(#path-5-outside-1_15_125)"/>
<path fill-rule="evenodd" clip-rule="evenodd" d="M400.603 356.295L405.091 373.042L401.19 374.087L405.164 388.919L400.775 390.095L402.57 396.794L373.8 404.503L373.031 401.632L370.105 402.416L368.182 395.239L364.281 396.284L362.486 389.586L358.585 390.631L356.534 382.976L352.145 384.152L350.222 376.975L345.833 378.151L344.038 371.452L351.353 369.492L352.379 373.32L356.28 372.275L358.203 379.452L363.567 378.014L350.746 330.168L356.598 328.6L365.316 361.135L370.68 359.698L367.987 349.65L373.839 348.082L376.531 358.13L381.895 356.693L379.203 346.645L385.054 345.077L387.747 355.125L393.11 353.688L391.316 346.989L393.754 346.336L396.702 357.341L400.603 356.295Z" fill="white"/>
<path fill-rule="evenodd" clip-rule="evenodd" d="M347.949 327.489C347.631 326.3 348.336 325.078 349.525 324.759L353.997 323.561C355.186 323.242 356.408 323.948 356.727 325.137C357.045 326.326 358.288 327.027 359.477 326.708C360.689 326.383 361.955 327.097 362.28 328.309L365.649 340.883C366.154 342.768 368.092 343.887 369.977 343.382L371.238 343.044C372.427 342.725 373.649 343.431 373.968 344.62L374.153 345.31C374.369 346.118 375.2 346.598 376.007 346.381C376.815 346.165 377.295 345.334 377.078 344.526L376.893 343.836C376.575 342.647 377.28 341.425 378.47 341.106L383.419 339.78C384.344 339.532 385.295 340.081 385.543 341.006C385.79 341.931 386.741 342.479 387.666 342.232L390.665 341.428C391.854 341.109 393.076 341.815 393.395 343.004C393.714 344.193 394.936 344.899 396.125 344.58L396.41 344.504C397.757 344.143 399.141 344.942 399.501 346.289L401.274 352.905C401.563 353.982 402.67 354.621 403.747 354.333C404.825 354.044 405.932 354.683 406.221 355.761L410.303 370.998C410.592 372.075 409.953 373.183 408.876 373.471C407.798 373.76 407.159 374.867 407.448 375.945L410.183 386.154C410.508 387.366 409.789 388.611 408.577 388.936C407.365 389.261 406.646 390.506 406.971 391.718L407.857 395.026C408.671 398.065 406.868 401.189 403.829 402.003L373.909 410.02C371.928 410.551 369.89 409.375 369.359 407.393L368.855 405.511C368.603 404.569 367.634 404.009 366.691 404.262C365.749 404.514 364.78 403.955 364.527 403.012L363.712 399.971C363.424 398.894 362.316 398.255 361.239 398.543C360.162 398.832 359.055 398.193 358.766 397.115L357.76 393.361C357.471 392.284 356.364 391.644 355.287 391.933C354.21 392.222 353.102 391.582 352.814 390.505L352.001 387.473C351.676 386.261 350.431 385.542 349.219 385.867C348.007 386.191 346.761 385.472 346.437 384.26L345.561 380.994C345.236 379.782 343.991 379.062 342.779 379.387C341.567 379.712 340.321 378.993 339.997 377.781L339.124 374.523C338.727 373.042 339.606 371.519 341.087 371.123L341.616 370.981C342.805 370.662 343.511 369.44 343.192 368.251C342.873 367.062 343.579 365.839 344.768 365.521L349.239 364.323C350.429 364.004 351.651 364.71 351.969 365.899L352.22 366.833C352.4 367.506 353.092 367.906 353.765 367.725C354.439 367.545 354.838 366.853 354.658 366.18L345.57 332.264C345.317 331.321 345.877 330.352 346.819 330.1C347.762 329.847 348.321 328.878 348.069 327.936L347.949 327.489ZM403.127 373.473C404.204 373.185 404.844 372.077 404.555 371L401.113 358.155C400.824 357.078 399.717 356.438 398.64 356.727C397.563 357.016 396.455 356.376 396.167 355.299L394.067 347.464C393.887 346.791 393.195 346.391 392.522 346.572C391.848 346.752 391.449 347.444 391.629 348.117L392.379 350.915C392.776 352.396 391.897 353.918 390.415 354.315C388.934 354.712 387.412 353.833 387.015 352.352L385.825 347.912C385.392 346.296 383.731 345.337 382.115 345.77C380.5 346.203 379.541 347.864 379.974 349.48L381.163 353.92C381.56 355.401 380.681 356.924 379.2 357.321C377.719 357.717 376.196 356.838 375.799 355.357L374.61 350.917C374.177 349.301 372.516 348.342 370.9 348.775C369.284 349.208 368.325 350.869 368.758 352.485L369.948 356.925C370.345 358.406 369.466 359.929 367.985 360.326C366.503 360.723 364.981 359.844 364.584 358.362L357.369 331.434C356.936 329.819 355.275 328.86 353.659 329.293C352.043 329.726 351.084 331.386 351.517 333.002L362.835 375.241C363.232 376.722 362.353 378.245 360.872 378.642C359.39 379.039 357.868 378.16 357.471 376.678L356.789 374.134C356.501 373.057 355.375 372.422 354.298 372.711C353.241 372.994 352.136 372.372 351.853 371.315C351.569 370.258 350.483 369.631 349.426 369.914L347.375 370.463C345.525 370.959 344.427 372.86 344.923 374.71L345.232 375.865C345.557 377.077 346.803 377.796 348.015 377.471C349.227 377.147 350.472 377.866 350.797 379.078L351.544 381.866C351.869 383.078 353.114 383.797 354.326 383.472C355.538 383.148 356.784 383.867 357.109 385.079L358.049 388.589C358.338 389.667 359.445 390.306 360.522 390.017C361.6 389.729 362.707 390.368 362.996 391.445L363.745 394.243C364.034 395.32 365.141 395.959 366.218 395.671C367.296 395.382 368.403 396.021 368.692 397.098L369.7 400.862C369.916 401.67 370.761 402.146 371.569 401.929C372.361 401.717 373.19 402.184 373.402 402.976C373.615 403.769 374.43 404.24 375.222 404.027L399.208 397.6C401.058 397.105 402.155 395.203 401.66 393.354L401.35 392.199C401.025 390.987 401.745 389.741 402.957 389.416C404.168 389.092 404.888 387.846 404.563 386.634L401.699 375.946C401.411 374.869 402.05 373.762 403.127 373.473Z" fill="#050C9C"/>
<path d="M375.714 376.631L376.262 378.674L373.321 379.462L375.607 387.996L373.086 388.672L370.8 380.138L367.858 380.926L367.311 378.883L375.714 376.631ZM378.205 387.3L378.95 375.765L381.558 375.066L387.956 384.688L385.348 385.386L384.112 383.264L380.765 384.161L380.77 386.613L378.205 387.3ZM380.771 382.156L383.118 381.527L380.81 377.549L380.781 377.557L380.771 382.156ZM386.758 373.75C387.724 373.336 388.767 372.979 389.888 372.678C392.979 371.85 394.832 372.585 395.448 374.884C395.782 376.13 395.673 377.174 395.122 378.015C394.578 378.844 393.611 379.445 392.22 379.818C391.872 379.911 391.481 379.995 391.045 380.071L391.993 383.606L389.573 384.254L386.758 373.75ZM390.556 378.245C390.878 378.21 391.189 378.153 391.488 378.073C392.184 377.887 392.677 377.583 392.969 377.164C393.267 376.732 393.339 376.226 393.183 375.647C392.875 374.497 391.992 374.118 390.533 374.509C390.215 374.594 389.918 374.705 389.644 374.84L390.556 378.245Z" fill="#050C9C"/>
</g>
<defs>
<filter id="filter0_d_15_125" x="293.658" y="295.991" width="157.684" height="157.684" filterUnits="userSpaceOnUse" color-interpolation-filters="sRGB">
<feFlood flood-opacity="0" result="BackgroundImageFix"/>
<feColorMatrix in="SourceAlpha" type="matrix" values="0 0 0 0 0 0 0 0 0 0 0 0 0 0 0 0 0 0 127 0" result="hardAlpha"/>
<feOffset dy="10.3333"/>
<feGaussianBlur stdDeviation="10.3333"/>
<feComposite in2="hardAlpha" operator="out"/>
<feColorMatrix type="matrix" values="0 0 0 0 0.0285627 0 0 0 0 0.1291 0 0 0 0 0.425944 0 0 0 0.15 0"/>
<feBlend mode="normal" in2="BackgroundImageFix" result="effect1_dropShadow_15_125"/>
<feBlend mode="normal" in="SourceGraphic" in2="effect1_dropShadow_15_125" result="shape"/>
</filter>
</defs>
</svg>
