<svg width="425" height="101" viewBox="0 0 425 101" fill="none" xmlns="http://www.w3.org/2000/svg">
<path d="M373.561 3H51.4485C24.6934 3 3 20.9415 3 43.0652C3 65.189 24.6934 83.1305 51.4485 83.1305H203.84C196.088 94.0274 186.957 94.8032 186.957 94.8032C208.361 106.28 220.963 83.1662 220.963 83.1662L220.944 83.1305H373.551C400.307 83.1305 422 65.189 422 43.0652C422 20.9415 400.316 3 373.561 3Z" fill="#FFF7B0" stroke="black" stroke-width="4.18" stroke-linecap="round" stroke-linejoin="round"/>
<path d="M28.84 40.424V36.476H45.64V40.424H28.84ZM26.32 52.184C26.32 51.1387 26.6467 50.056 27.3 48.936C27.972 47.816 29.1387 46.4533 30.8 44.848L34.132 47.284C32.0227 49.3187 30.968 50.8027 30.968 51.736C30.968 52.5573 31.4907 53.2107 32.536 53.696C33.5813 54.1813 35.1213 54.424 37.156 54.424C38.3693 54.424 39.9 54.2933 41.748 54.032C43.596 53.752 45.1733 53.4347 46.48 53.08L47.32 57.14C46.0133 57.5133 44.352 57.8307 42.336 58.092C40.3387 58.3533 38.612 58.484 37.156 58.484C33.7773 58.484 31.1267 57.9147 29.204 56.776C27.2813 55.6187 26.32 54.088 26.32 52.184ZM67.424 35.748C66.248 38.6413 65.0067 41.768 63.7 45.128L63.756 45.184C64.7453 44.624 65.5853 44.344 66.276 44.344C67.5267 44.344 68.488 44.8013 69.16 45.716C69.832 46.6307 70.308 48.208 70.588 50.448C70.756 51.8293 70.952 52.7533 71.176 53.22C71.4 53.6867 71.6893 53.92 72.044 53.92C73.0147 53.92 74.0133 51.9787 75.04 48.096L78.96 49.16C78.0453 52.632 77.0467 55.0307 75.964 56.356C74.9 57.6627 73.556 58.316 71.932 58.316C70.3453 58.316 69.1133 57.8307 68.236 56.86C67.3773 55.8893 66.7707 54.228 66.416 51.876C66.2293 50.6627 66.024 49.832 65.8 49.384C65.576 48.936 65.2867 48.712 64.932 48.712C64.1107 48.712 63.2053 49.44 62.216 50.896C61.2267 52.3333 59.9387 54.9653 58.352 58.792L54.32 57.364C58.0347 47.8067 61.0213 40.2 63.28 34.544L67.424 35.748ZM107.94 42.244C106.727 42.02 105.271 41.88 103.572 41.824V50.14C105.177 51.2227 106.867 52.6227 108.64 54.34L105.98 57.252C104.972 56.3373 104.057 55.5347 103.236 54.844C102.471 57.4573 100.324 58.764 96.796 58.764C94.612 58.764 92.904 58.26 91.672 57.252C90.4587 56.244 89.852 54.8813 89.852 53.164C89.852 51.4653 90.4493 50.1213 91.644 49.132C92.8573 48.124 94.5747 47.62 96.796 47.62C97.5427 47.62 98.364 47.7507 99.26 48.012V37.876C102.713 37.876 105.765 38.0627 108.416 38.436L107.94 42.244ZM83.664 41.684V37.876H88.256C88.6667 36.196 88.9653 34.9267 89.152 34.068L93.212 34.572C93.0627 35.3187 92.82 36.42 92.484 37.876H96.88V41.684H91.532C90.3 46.3693 88.7693 51.0267 86.94 55.656L82.992 54.312C84.7093 49.888 86.128 45.6787 87.248 41.684H83.664ZM99.26 51.932C98.42 51.4653 97.5987 51.232 96.796 51.232C95.9187 51.232 95.256 51.4093 94.808 51.764C94.36 52.1 94.136 52.5667 94.136 53.164C94.136 53.78 94.3693 54.2747 94.836 54.648C95.3027 55.0027 95.956 55.18 96.796 55.18C97.7293 55.18 98.3733 54.9747 98.728 54.564C99.0827 54.1533 99.26 53.36 99.26 52.184V51.932ZM117.04 40.424V36.476H133.84V40.424H117.04ZM114.52 52.184C114.52 51.1387 114.847 50.056 115.5 48.936C116.172 47.816 117.339 46.4533 119 44.848L122.332 47.284C120.223 49.3187 119.168 50.8027 119.168 51.736C119.168 52.5573 119.691 53.2107 120.736 53.696C121.781 54.1813 123.321 54.424 125.356 54.424C126.569 54.424 128.1 54.2933 129.948 54.032C131.796 53.752 133.373 53.4347 134.68 53.08L135.52 57.14C134.213 57.5133 132.552 57.8307 130.536 58.092C128.539 58.3533 126.812 58.484 125.356 58.484C121.977 58.484 119.327 57.9147 117.404 56.776C115.481 55.6187 114.52 54.088 114.52 52.184ZM146.916 35.636L151.536 34.908C151.984 37.5773 152.507 40.144 153.104 42.608C156.016 41.3947 159.535 40.3307 163.66 39.416L164.5 43.476C159.46 44.596 155.652 45.856 153.076 47.256C150.519 48.6373 149.24 49.972 149.24 51.26C149.24 52.3427 149.688 53.1547 150.584 53.696C151.499 54.2187 152.936 54.48 154.896 54.48C157.883 54.48 160.972 54.2187 164.164 53.696L164.64 57.756C161.523 58.2787 158.275 58.54 154.896 58.54C147.952 58.54 144.48 56.188 144.48 51.484C144.48 49.02 145.917 46.8173 148.792 44.876C148.027 41.6653 147.401 38.5853 146.916 35.636ZM182.644 41.18V37.232H194.768V41.18H182.644ZM178.892 35.72C178.015 39.1547 177.576 42.888 177.576 46.92C177.576 50.952 178.015 54.6853 178.892 58.12L174.44 58.596C173.507 55.0307 173.04 51.1387 173.04 46.92C173.04 42.7013 173.507 38.8093 174.44 35.244L178.892 35.72ZM194.964 52.744L195.58 56.692C193.377 57.252 191.119 57.532 188.804 57.532C186.116 57.532 184.016 57.0093 182.504 55.964C180.992 54.9187 180.236 53.5093 180.236 51.736C180.236 50.896 180.553 49.9067 181.188 48.768C181.823 47.6293 182.672 46.5653 183.736 45.576L186.844 48.012C185.388 49.5053 184.66 50.6533 184.66 51.456C184.66 52.1467 184.987 52.66 185.64 52.996C186.293 53.3133 187.348 53.472 188.804 53.472C190.708 53.472 192.761 53.2293 194.964 52.744ZM214.508 50.084H212.268C212.828 50.924 213.407 51.6053 214.004 52.128C214.228 51.5867 214.396 50.9053 214.508 50.084ZM212.184 46.892H214.732C214.769 45.6227 214.788 44.568 214.788 43.728H212.184V46.892ZM226.66 35.776V39.332H219.24V40.536H225.848V51.596H221.816V50.084H218.848C218.605 51.764 218.213 53.164 217.672 54.284C220.08 55.1987 223.151 55.712 226.884 55.824L226.296 59.576C222.021 59.464 218.344 58.68 215.264 57.224C213.901 58.1947 211.727 58.9787 208.74 59.576L207.312 56.02C209.328 55.5347 210.7 55.124 211.428 54.788C210.383 53.9107 209.487 52.8933 208.74 51.736L211.176 50.084H208.264V40.536H214.788V39.332H207.396C207.041 40.452 206.845 41.0587 206.808 41.152V59.716H202.664V48.236C201.955 49.3933 201.32 50.2707 200.76 50.868L199.724 45.436C200.844 43.924 201.759 42.2907 202.468 40.536C203.196 38.7627 203.821 36.588 204.344 34.012L208.432 34.74C208.395 34.9827 208.339 35.328 208.264 35.776H214.788V33.844H219.24V35.776H226.66ZM221.816 46.892V43.728H219.24C219.24 44.848 219.212 45.9027 219.156 46.892H221.816ZM235.984 50.28C235.611 50.6907 235.041 51.3347 234.276 52.212C233.511 53.0707 233.035 53.6027 232.848 53.808L229.88 51.064C232.307 48.2453 234.341 45.996 235.984 44.316V42.16H230.72V38.576H235.984V34.684H240.044V40.62C242.601 38.604 245 37.596 247.24 37.596C249.909 37.596 251.841 38.38 253.036 39.948C254.249 41.4973 254.856 44.12 254.856 47.816C254.856 51.008 254.128 53.4533 252.672 55.152C251.235 56.8507 249.284 57.7 246.82 57.7C245.159 57.7 243.572 57.2987 242.06 56.496L243.376 52.688C244.72 53.248 245.868 53.528 246.82 53.528C249.228 53.528 250.432 51.624 250.432 47.816C250.432 45.3893 250.189 43.7747 249.704 42.972C249.237 42.1693 248.341 41.768 247.016 41.768C246.195 41.768 245.243 42.0853 244.16 42.72C243.096 43.3547 241.724 44.4747 240.044 46.08V58.876H235.984V50.28ZM259.784 38.576H265.636V34.656H269.92V41.152C271.619 39.6587 272.916 38.6973 273.812 38.268C274.708 37.82 275.669 37.596 276.696 37.596C278.208 37.596 279.291 38.0533 279.944 38.968C280.597 39.8827 280.924 41.5533 280.924 43.98C280.924 44.876 280.784 46.024 280.504 47.424C280.243 48.8053 280.112 49.944 280.112 50.84C280.112 52.3893 280.401 53.164 280.98 53.164C281.484 53.164 282.417 52.5387 283.78 51.288L285.964 54.368C284.993 55.3947 283.939 56.2067 282.8 56.804C281.661 57.4013 280.625 57.7 279.692 57.7C278.273 57.7 277.237 57.2333 276.584 56.3C275.931 55.348 275.604 53.6867 275.604 51.316C275.604 50.42 275.735 49.272 275.996 47.872C276.257 46.5653 276.388 45.4267 276.388 44.456C276.388 42.888 276.099 42.104 275.52 42.104C275.352 42.104 275.147 42.1787 274.904 42.328C274.661 42.4773 274.129 42.9067 273.308 43.616C272.487 44.3253 271.357 45.3613 269.92 46.724V58.904H265.636V50.868C265.263 51.2413 264.656 51.8387 263.816 52.66C262.995 53.4813 262.369 54.0973 261.94 54.508L259.056 51.652C262.995 47.7693 265.188 45.604 265.636 45.156V42.384H259.784V38.576ZM290.108 36.924C297.687 36.924 305.415 36.7373 313.292 36.364L313.432 40.424C309.139 40.7227 305.909 41.6093 303.744 43.084C301.579 44.54 300.496 46.3413 300.496 48.488C300.496 50.2053 301.084 51.5773 302.26 52.604C303.436 53.612 304.976 54.116 306.88 54.116C307.813 54.116 308.943 53.9947 310.268 53.752L310.772 57.896C309.484 58.1573 308.112 58.288 306.656 58.288C303.315 58.288 300.636 57.4387 298.62 55.74C296.604 54.0413 295.596 51.7733 295.596 48.936C295.596 47.4427 296.053 45.968 296.968 44.512C297.883 43.056 299.152 41.824 300.776 40.816V40.76C296.856 40.9093 293.3 40.984 290.108 40.984V36.924ZM335.02 38.212L339.192 37.008C341.731 42.3093 343 48.46 343 55.46H338.464C338.464 49.188 337.316 43.4387 335.02 38.212ZM325.696 37.736C325.304 39.0987 324.977 40.676 324.716 42.468C324.455 44.26 324.324 45.8373 324.324 47.2C324.324 49.0853 324.604 50.6907 325.164 52.016C325.743 53.3227 326.312 53.976 326.872 53.976C327.301 53.976 327.871 53.4813 328.58 52.492C329.289 51.5027 330.008 50.084 330.736 48.236L334.6 49.692C333.648 52.4547 332.416 54.6107 330.904 56.16C329.411 57.7093 327.955 58.484 326.536 58.484C324.875 58.484 323.335 57.392 321.916 55.208C320.516 53.024 319.816 50.3547 319.816 47.2C319.816 43.5787 320.301 40.2653 321.272 37.26L325.696 37.736ZM349.44 37.064H360.304V34.6H364.616V37.064H371.56V40.9H364.616V42.664H370.496V46.416H364.616V50.364C366.389 51.3907 368.508 53.0333 370.972 55.292L368.34 58.204C366.735 56.7107 365.4 55.572 364.336 54.788C363.981 56.2067 363.244 57.2333 362.124 57.868C361.023 58.5027 359.455 58.82 357.42 58.82C355.367 58.82 353.761 58.344 352.604 57.392C351.465 56.4587 350.896 55.1333 350.896 53.416C350.896 51.8107 351.437 50.5413 352.52 49.608C353.621 48.6747 355.255 48.208 357.42 48.208C358.391 48.208 359.352 48.3293 360.304 48.572V46.416H350.504V42.664H360.304V40.9H349.44V37.064ZM360.304 52.436C359.483 52.1 358.68 51.932 357.896 51.932C356.123 51.932 355.236 52.4267 355.236 53.416C355.236 54.4613 355.964 54.984 357.42 54.984C358.54 54.984 359.296 54.816 359.688 54.48C360.08 54.1253 360.285 53.444 360.304 52.436ZM377.664 36.896H390.46V34.096H394.744V36.896H402.136V40.48H394.744V45.772C395.323 46.892 395.612 48.18 395.612 49.636C395.612 52.5293 394.763 54.6947 393.064 56.132C391.384 57.5693 388.547 58.484 384.552 58.876L383.824 55.012C386.512 54.7507 388.323 54.4053 389.256 53.976C390.208 53.5467 390.833 52.8747 391.132 51.96C391.132 51.9413 391.141 51.9133 391.16 51.876C391.179 51.82 391.188 51.7827 391.188 51.764L391.132 51.736C390.161 52.3147 389.069 52.604 387.856 52.604C386.083 52.604 384.636 52.0907 383.516 51.064C382.415 50.0373 381.864 48.7027 381.864 47.06C381.864 45.4173 382.424 44.0827 383.544 43.056C384.683 42.0293 386.176 41.516 388.024 41.516C388.789 41.516 389.583 41.6747 390.404 41.992L390.46 41.964V40.48H377.664V36.896ZM386.736 45.548C386.307 45.94 386.092 46.444 386.092 47.06C386.092 47.676 386.307 48.18 386.736 48.572C387.184 48.964 387.763 49.16 388.472 49.16C389.181 49.16 389.751 48.964 390.18 48.572C390.628 48.18 390.852 47.676 390.852 47.06C390.852 46.444 390.628 45.94 390.18 45.548C389.751 45.156 389.181 44.96 388.472 44.96C387.763 44.96 387.184 45.156 386.736 45.548Z" fill="black"/>
</svg>
