<svg width="424" height="100" viewBox="0 0 424 100" fill="none" xmlns="http://www.w3.org/2000/svg">
<path d="M372.651 2.09H50.5385C23.7834 2.09 2.09 20.0315 2.09 42.1552C2.09 64.279 23.7834 82.2205 50.5385 82.2205H202.93C195.178 93.1174 186.047 93.8932 186.047 93.8932C207.451 105.37 220.053 82.2562 220.053 82.2562L220.034 82.2205H372.641C399.397 82.2205 421.09 64.279 421.09 42.1552C421.09 20.0315 399.406 2.09 372.651 2.09Z" fill="#FFF7B0" stroke="black" stroke-width="4.18" stroke-linecap="round" stroke-linejoin="round"/>
<path d="M67.4309 56.09V35.65H72.0789L79.3309 48.194H79.3869V35.65H84.0349V56.09H79.3869L72.1349 43.546H72.0789V56.09H67.4309ZM89.6942 35.65H102.49V39.486H94.4542V44.134H101.93V47.718H94.4542V56.09H89.6942V35.65ZM123.259 35.65V39.598H117.575V56.09H112.703V39.598H107.019V35.65H123.259ZM142.233 53.234C146.209 52.674 148.197 50.266 148.197 46.01C148.197 44.274 147.693 42.7993 146.685 41.586C145.696 40.354 144.389 39.5793 142.765 39.262C142.28 42.7527 141.729 45.674 141.113 48.026C140.516 50.3593 139.834 52.1513 139.069 53.402C138.322 54.634 137.557 55.4927 136.773 55.978C135.989 56.4633 135.084 56.706 134.057 56.706C132.47 56.706 131.005 55.81 129.661 54.018C128.336 52.226 127.673 50.042 127.673 47.466C127.673 43.7887 128.914 40.802 131.397 38.506C133.88 36.1913 137.146 35.034 141.197 35.034C144.464 35.034 147.161 36.07 149.289 38.142C151.417 40.1953 152.481 42.818 152.481 46.01C152.481 49.3327 151.641 51.9833 149.961 53.962C148.281 55.9407 146.013 57.0513 143.157 57.294L142.233 53.234ZM138.257 39.43C136.278 39.9153 134.729 40.8673 133.609 42.286C132.508 43.7047 131.957 45.4313 131.957 47.466C131.957 48.7167 132.2 49.8553 132.685 50.882C133.189 51.89 133.646 52.394 134.057 52.394C134.262 52.394 134.486 52.2633 134.729 52.002C134.99 51.7407 135.27 51.2927 135.569 50.658C135.868 50.0233 136.157 49.23 136.437 48.278C136.736 47.326 137.044 46.094 137.361 44.582C137.678 43.0513 137.977 41.334 138.257 39.43ZM174.153 49.23C172.753 51.5447 170.7 53.3553 167.993 54.662C169.617 54.83 172.053 54.914 175.301 54.914H178.381C176.832 52.674 175.422 50.7793 174.153 49.23ZM164.773 38.954L161.973 41.586C160.2 39.626 158.548 37.8807 157.017 36.35L159.957 33.718C161.861 35.6967 163.466 37.442 164.773 38.954ZM164.717 46.43V42.902H171.577V40.746H165.277V37.218H168.861C168.394 36.2287 167.834 35.1647 167.181 34.026L170.905 33.13C171.614 34.2873 172.324 35.65 173.033 37.218H174.573C175.338 35.874 176.02 34.502 176.617 33.102L180.481 33.886C179.958 35.118 179.426 36.2287 178.885 37.218H181.377V40.746H175.917V42.874V42.902H181.825V46.43H176.701C178.456 48.278 180.154 50.35 181.797 52.646L178.521 54.914H182.329L182.105 58.554H175.273C171.446 58.554 168.525 58.3673 166.509 57.994C164.493 57.6393 162.99 57.0233 162.001 56.146C160.881 57.098 159.621 58.0407 158.221 58.974L156.205 55.53C157.306 54.8393 158.38 54.0927 159.425 53.29V47.158H156.681V43.518H163.653V52.478C164.026 53.0753 164.446 53.5327 164.913 53.85C165.398 54.1673 166.145 54.4007 167.153 54.55L164.913 51.554C168.124 50.3033 170.149 48.5953 170.989 46.43H164.717ZM197.729 41.026C197.281 39.9433 196.852 38.982 196.441 38.142C195.918 38.1607 195.097 38.1887 193.977 38.226C194.556 39.4767 194.976 40.41 195.237 41.026H197.729ZM203.161 41.026C203.572 40.13 204.038 38.9913 204.561 37.61C204.076 37.666 202.676 37.778 200.361 37.946C200.921 39.0847 201.378 40.1113 201.733 41.026H203.161ZM198.541 51.694C200.24 50.854 201.612 49.9673 202.657 49.034H193.977C195.19 49.986 196.712 50.8727 198.541 51.694ZM187.649 34.67C192.241 34.67 196.553 34.5207 200.585 34.222C204.636 33.9233 207.641 33.5407 209.601 33.074L210.581 36.686C209.424 36.9473 207.996 37.19 206.297 37.414L208.453 37.918C208.154 38.7767 207.744 39.8127 207.221 41.026H211.561V47.914H207.781V49.034C206.437 50.6953 204.85 52.1233 203.021 53.318C205.597 54.0833 208.453 54.69 211.589 55.138L210.161 58.666C205.998 58.162 202.116 57.1727 198.513 55.698C195.508 56.9673 191.868 57.9567 187.593 58.666L186.165 55.138C189.058 54.7647 191.672 54.214 194.005 53.486C192.661 52.702 191.504 51.89 190.533 51.05L192.885 49.034H189.497V47.914H186.193V41.026H191.233C190.916 40.2607 190.505 39.3553 190.001 38.31H188.069L187.649 34.67ZM207.221 44.246H190.533V45.618H207.221V44.246ZM221.221 41.138V58.806H216.993V47.83C216.433 48.7073 215.901 49.4167 215.397 49.958L214.501 44.526C215.621 43.014 216.536 41.3807 217.245 39.626C217.973 37.8527 218.598 35.678 219.121 33.102L223.209 33.83C222.798 36.4433 222.136 38.8793 221.221 41.138ZM227.913 57.854V58.806H223.573V50.126H240.205V58.806H235.753V57.854H227.913ZM224.413 37.022V33.83H240.149V37.022H224.413ZM222.593 41.362V37.862H241.577V41.362H222.593ZM223.853 45.31V42.23H239.925V45.31H223.853ZM223.853 49.258V46.178H239.925V49.258H223.853ZM235.753 54.774V53.206H227.913V54.774H235.753ZM266.581 39.206L263.697 40.578C262.969 39.1033 262.176 37.6193 261.317 36.126L264.201 34.67C265.06 36.2567 265.853 37.7687 266.581 39.206ZM271.117 38.31L268.177 39.71C267.337 38.086 266.525 36.574 265.741 35.174L268.681 33.69C269.353 34.9033 270.165 36.4433 271.117 38.31ZM262.857 47.186C262.857 54.1113 261.158 57.574 257.761 57.574C257.014 57.574 256.044 57.4527 254.849 57.21C253.654 56.986 252.618 56.706 251.741 56.37L252.777 52.506C254.793 53.1593 256.146 53.486 256.837 53.486C257.098 53.486 257.332 53.29 257.537 52.898C257.742 52.4873 257.92 51.7407 258.069 50.658C258.237 49.5567 258.321 48.166 258.321 46.486C258.321 44.3767 258.237 43.154 258.069 42.818C257.901 42.4633 257.304 42.286 256.277 42.286H253.533C252.394 47.326 250.798 52.506 248.745 57.826L244.993 56.594C246.822 51.7033 248.278 46.934 249.361 42.286H245.581V38.45H250.201C250.593 36.4713 250.92 34.6513 251.181 32.99L255.157 33.27C255.008 34.502 254.728 36.2287 254.317 38.45H256.081C256.884 38.45 257.49 38.45 257.901 38.45C258.312 38.45 258.788 38.4873 259.329 38.562C259.87 38.618 260.253 38.6647 260.477 38.702C260.72 38.7393 261 38.8607 261.317 39.066C261.653 39.2713 261.868 39.4487 261.961 39.598C262.073 39.7287 262.213 40.0087 262.381 40.438C262.549 40.8487 262.642 41.2033 262.661 41.502C262.68 41.8007 262.717 42.2953 262.773 42.986C262.829 43.6767 262.857 44.2927 262.857 44.834C262.857 45.3753 262.857 46.1593 262.857 47.186ZM267.029 52.338C266.264 49.426 265.218 46.0567 263.893 42.23L267.953 40.97C269.26 44.6287 270.333 48.082 271.173 51.33L267.029 52.338ZM291.753 45.058V48.306H293.013V45.058H291.753ZM291.753 41.306H293.013V38.366H291.753V41.306ZM286.433 45.058V48.306H287.721V45.058H286.433ZM286.433 41.306H287.721V38.366H286.433V41.306ZM282.401 45.058H281.141V48.306H282.401V45.058ZM281.141 38.366V41.306H282.401V38.366H281.141ZM282.681 59.002C282.494 57.1353 282.205 55.082 281.813 52.842L285.929 52.422C286.358 54.8113 286.657 56.8647 286.825 58.582L282.681 59.002ZM289.373 58.974C288.776 56.9393 288.122 54.9233 287.413 52.926L291.389 52.114C292.136 54.242 292.789 56.258 293.349 58.162L289.373 58.974ZM296.625 58.974C295.486 56.9767 294.282 55.0727 293.013 53.262L295.925 51.722H277.977L281.169 53.29C280.142 55.2687 278.892 57.21 277.417 59.114L274.029 57.014C275.28 55.39 276.446 53.626 277.529 51.722H274.617V48.306H276.913V45.058H274.057V41.306H276.913V40.774L274.001 39.29C276.11 36.994 277.846 34.6793 279.209 32.346L283.381 33.214C283.082 33.8487 282.802 34.39 282.541 34.838H298.977V38.366H297.241V41.306H300.097V45.058H297.241V48.306H299.537V51.722H296.737C297.82 53.29 298.949 55.0913 300.125 57.126L296.625 58.974ZM303.065 35.426L306.061 34.39C306.528 35.8833 306.929 37.386 307.265 38.898V33.214H310.989V38.786C311.456 37.1993 311.82 35.6873 312.081 34.25L315.301 34.922C314.778 37.2927 314.134 39.5793 313.369 41.782L310.989 40.858V42.146H314.237V43.378L316.701 41.11C318.717 42.9393 320.584 44.8153 322.301 46.738L319.389 49.51C317.802 47.7553 316.085 45.9913 314.237 44.218V45.674H312.249C313.294 47.7087 314.237 49.5753 315.077 51.274L323.225 49.734V39.57L320.649 42.062C319.006 40.2327 317.382 38.562 315.777 37.05L318.689 34.39C320.164 35.7153 321.676 37.218 323.225 38.898V33.214H327.565V48.922L329.693 48.502L330.057 52.254L327.565 52.73V58.806H323.225V53.57L314.321 55.25L314.041 52.394L312.669 53.682C312.501 53.2527 312.24 52.6273 311.885 51.806C311.549 50.9847 311.288 50.3687 311.101 49.958V58.806H307.181V51.218C306.416 53.346 305.51 55.0353 304.465 56.286L302.841 51.918C304.446 49.9393 305.622 47.858 306.369 45.674H303.513V42.146H307.265V40.886L304.773 41.754C304.325 39.906 303.756 37.7967 303.065 35.426ZM343.021 35.65H348.733L348.033 49.65H343.721L343.021 35.65ZM343.441 56.09V51.89H348.313V56.09H343.441Z" fill="black"/>
</svg>
