<svg width="1440" height="59" viewBox="0 0 1440 59" fill="none" xmlns="http://www.w3.org/2000/svg">
<path d="M-903.726 1.31141C-903.726 16.6571 -916.161 29.0914 -931.506 29.0914C-916.161 29.0914 -903.726 41.5257 -903.726 56.8714C-903.726 41.5257 -891.292 29.0914 -875.946 29.0914C-891.292 29.0914 -903.726 16.6571 -903.726 1.31141Z" fill="white"/>
<path d="M-1120.93 36.3253C-1119.04 37.9143 -1116.7 39.2144 -1113.89 40.2034C-1111.08 41.2035 -1108.23 41.6924 -1105.34 41.6924C-1108.68 47.0595 -1111.07 52.3599 -1112.5 57.5826C-1116.08 56.4936 -1119.41 55.0379 -1122.5 53.2155C-1125.59 51.4043 -1128.12 49.2708 -1130.11 46.8373C-1134.04 51.4154 -1140.43 55.0935 -1149.28 57.8715C-1151.47 50.6153 -1153.84 45.3371 -1156.37 42.0591C-1157.51 47.2262 -1158.64 52.6044 -1159.72 58.1715L-1178.45 55.2713L-1175.76 47.3595C-1174.31 43.1814 -1172.96 39.1478 -1171.69 35.2363C-1170.43 31.336 -1169.31 27.7357 -1168.37 24.4577L-1165.16 24.98C-1167.05 21.9908 -1169.2 18.8906 -1171.61 15.657C-1174.04 12.4345 -1176.21 9.74543 -1178.15 7.61193L-1161.59 0.222457C-1159.5 3.31159 -1156.87 7.71194 -1153.68 13.4235C-1151.99 9.54542 -1150.97 5.22285 -1150.62 0.444697L-1134.89 0.444697L-1135.41 3.05602L-1105.65 3.05602C-1105.71 11.1567 -1106.04 17.8572 -1106.66 23.1576C-1107.29 28.458 -1108.54 33.1362 -1110.43 37.2143C-1112.52 36.0697 -1114.84 34.9808 -1117.41 33.9362C-1119.98 32.8917 -1122.2 32.0917 -1124.09 31.5472C-1123.89 33.1362 -1122.84 34.7252 -1120.95 36.3253H-1120.93ZM-1162.11 25.5133L-1153.98 26.7801C-1154.98 25.5356 -1156.21 24.2466 -1157.71 22.902L-1162.11 25.5133ZM-1139.21 18.5017H-1124.14V30.9582C-1124.14 31.2027 -1124.12 31.4027 -1124.07 31.5583C-1122.48 30.0137 -1121.32 28.0691 -1120.6 25.7023C-1119.88 23.3465 -1119.4 20.4463 -1119.14 17.0127H-1139.21C-1141.7 24.2244 -1144.88 30.2915 -1148.76 35.2141C-1150.3 32.225 -1151.71 29.8693 -1153.01 28.1247C-1154.26 33.0028 -1155.28 37.2254 -1156.07 40.8035C-1144.83 39.9589 -1139.21 35.8364 -1139.21 28.4247V18.5017Z" fill="white"/>
<path d="M-1036.05 23.7908V39.1587L-1075.28 39.1587V23.7908H-1080.95V42.2145L-1032.47 42.2145V56.3823L-1080.95 56.3823V57.2045H-1098.19V23.7908H-1102.81V10.0675H-1098.19V0.377808L-1080.95 0.377808V10.0786H-1075.28V0L-1059.09 0V10.0675H-1052.23V0L-1036.04 0V10.0675H-1030.15V23.7908H-1036.05ZM-1052.24 26.6243V23.7908H-1059.11V26.6243H-1052.24Z" fill="white"/>
<path d="M-957.731 40.1253C-957.531 41.9143 -957.431 43.8256 -957.431 45.8702C-957.431 49.8483 -958.197 52.6485 -959.742 54.2597C-961.286 55.871 -963.542 56.6821 -966.531 56.6821C-976.176 56.6821 -983.833 51.3817 -989.511 40.792C-991.5 37.0584 -993.289 32.6136 -994.878 27.4354L-1003.98 27.8132C-1003.98 23.6351 -1004.1 20.5237 -1004.36 18.4902C-1004.76 20.8237 -1005.22 22.7906 -1005.78 24.3796V57.3489H-1022.71V41.3809C-1023.66 41.781 -1024.52 42.081 -1025.32 42.281C-1025.67 39.003 -1025.96 36.5361 -1026.18 34.8915C-1026.4 33.247 -1026.81 31.3579 -1027.41 29.2244C-1028.01 27.0909 -1028.86 24.8241 -1029.95 22.435C-1027.51 22.435 -1025.62 22.1238 -1024.28 21.5016C-1022.94 20.8793 -1022.05 20.1459 -1021.59 19.3014C-1021.19 18.5013 -1020.99 16.1678 -1020.99 12.2897C-1020.99 9.25616 -1021.17 5.4003 -1021.51 0.733261L-1003.01 0.811045C-1003.11 2.20004 -1003.16 3.30013 -1003.16 4.08908C-1003.36 8.16718 -1003.56 11.223 -1003.76 13.2676L-998.234 13.0453C-998.978 8.86724 -999.556 4.74469 -999.945 0.666589L-981.666 0.666589L-981.444 3.72239L-968.243 0.144326C-963.864 3.67794 -960.831 6.73374 -959.142 9.32283L-968.62 11.8564L-959.142 11.4786V25.9464L-970.476 26.3909C-967.098 28.1354 -963.264 29.4022 -958.986 30.1912C-958.342 35.0138 -957.919 38.3251 -957.719 40.1142L-957.731 40.1253ZM-980.332 12.3008L-973.398 12.0786C-975.243 9.54507 -977.899 6.91153 -981.377 4.16687C-981.177 6.80041 -980.832 9.51173 -980.332 12.3008ZM-971.154 34.3026C-971.654 31.469 -972.054 28.8577 -972.343 26.4686L-976.743 26.6909C-974.999 31.5135 -972.965 35.5916 -970.632 38.9252C-970.487 39.1252 -970.654 37.5806 -971.154 34.3026Z" fill="white"/>
<path d="M-580.145 1.31141C-580.145 16.6571 -592.58 29.0914 -607.925 29.0914C-592.58 29.0914 -580.145 41.5257 -580.145 56.8714C-580.145 41.5257 -567.711 29.0914 -552.365 29.0914C-567.711 29.0914 -580.145 16.6571 -580.145 1.31141Z" fill="white"/>
<path d="M-797.351 36.3253C-795.462 37.9143 -793.118 39.2144 -790.306 40.2034C-787.495 41.2035 -784.65 41.6924 -781.761 41.6924C-785.095 47.0595 -787.484 52.3599 -788.917 57.5825C-792.495 56.4936 -795.829 55.0379 -798.918 53.2155C-802.007 51.4043 -804.541 49.2708 -806.53 46.8372C-810.464 51.4154 -816.853 55.0935 -825.698 57.8715C-827.887 50.6153 -830.254 45.3371 -832.788 42.0591C-833.932 47.2262 -835.054 52.6044 -836.143 58.1715L-854.867 55.2601L-852.178 47.3484C-850.733 43.1703 -849.378 39.1366 -848.111 35.2252C-846.844 31.3249 -845.733 27.7246 -844.788 24.4466L-841.577 24.9688C-843.466 21.9797 -845.622 18.8795 -848.033 15.6459C-850.444 12.4123 -852.622 9.72319 -854.556 7.58969L-837.999 0.200211C-835.91 3.28935 -833.276 7.68969 -830.087 13.4013C-828.398 9.52317 -827.376 5.20061 -827.031 0.422451L-811.297 0.422451L-811.819 3.03377L-782.061 3.03377C-782.117 11.1344 -782.45 17.8349 -783.072 23.1354C-783.695 28.4358 -784.95 33.1139 -786.839 37.192C-788.928 36.0475 -791.251 34.9585 -793.818 33.914C-796.385 32.8695 -798.607 32.0694 -800.496 31.5249C-800.296 33.1139 -799.251 34.7029 -797.362 36.3031L-797.351 36.3253ZM-838.521 25.5133L-830.387 26.7801C-831.387 25.5356 -832.621 24.2466 -834.121 22.902L-838.521 25.5133ZM-815.62 18.5017H-800.552V30.9582C-800.552 31.2027 -800.529 31.4027 -800.474 31.5583C-798.885 30.0137 -797.729 28.0691 -797.007 25.7022C-796.285 23.3465 -795.807 20.4463 -795.551 17.0127H-815.62C-818.109 24.2243 -821.287 30.2915 -825.165 35.2141C-826.709 32.225 -828.12 29.8692 -829.421 28.1246C-830.665 33.0028 -831.687 37.2254 -832.476 40.8034C-821.242 39.9589 -815.62 35.8364 -815.62 28.4247V18.5017Z" fill="white"/>
<path d="M-712.467 23.7908V39.1587H-751.703V23.7908H-757.37V42.2145H-708.889V56.3823H-757.37V57.2045H-774.605V23.7908H-779.228V10.0675H-774.605V0.377808L-757.37 0.377808V10.0786H-751.703V0L-735.513 0V10.0675H-728.646V0L-712.456 0V10.0675H-706.566V23.7908H-712.467ZM-728.657 26.6243V23.7908L-735.524 23.7908V26.6243L-728.657 26.6243Z" fill="white"/>
<path d="M-634.15 40.1253C-633.95 41.9143 -633.85 43.8256 -633.85 45.8702C-633.85 49.8483 -634.616 52.6485 -636.161 54.2597C-637.705 55.871 -639.961 56.6821 -642.95 56.6821C-652.596 56.6821 -660.252 51.3817 -665.93 40.792C-667.919 37.0584 -669.708 32.6136 -671.297 27.4354L-680.398 27.8132C-680.398 23.6351 -680.52 20.5237 -680.776 18.4902C-681.176 20.8237 -681.642 22.7906 -682.198 24.3796V57.3489H-699.133V41.3809C-700.077 41.781 -700.944 42.081 -701.744 42.281C-702.088 39.003 -702.377 36.5361 -702.599 34.8915C-702.822 33.247 -703.233 31.3579 -703.833 29.2244C-704.433 27.0909 -705.278 24.8241 -706.366 22.435C-703.933 22.435 -702.044 22.1238 -700.699 21.5016C-699.355 20.8793 -698.466 20.1459 -698.01 19.3014C-697.61 18.5013 -697.41 16.1678 -697.41 12.2897C-697.41 9.25616 -697.588 5.4003 -697.932 0.733261L-679.431 0.811045C-679.531 2.20004 -679.575 3.30013 -679.575 4.08908C-679.775 8.16718 -679.975 11.223 -680.176 13.2676L-674.653 13.0453C-675.397 8.86724 -675.975 4.74469 -676.364 0.666589L-658.085 0.666589L-657.863 3.72239L-644.662 0.144326C-640.283 3.67794 -637.25 6.73374 -635.561 9.32283L-645.039 11.8564L-635.561 11.4786V25.9464L-646.895 26.3909C-643.517 28.1354 -639.683 29.4022 -635.405 30.1912C-634.761 35.0138 -634.339 38.3251 -634.138 40.1142L-634.15 40.1253ZM-656.751 12.3008L-649.818 12.0786C-651.662 9.54507 -654.318 6.91153 -657.796 4.16687C-657.596 6.80041 -657.251 9.51173 -656.751 12.3008ZM-647.573 34.3026C-648.073 31.469 -648.473 28.8577 -648.762 26.4686L-653.162 26.6909C-651.418 31.5135 -649.384 35.5916 -647.051 38.9252C-646.906 39.1252 -647.073 37.5806 -647.573 34.3026Z" fill="white"/>
<path d="M-256.564 1.31141C-256.564 16.6571 -268.998 29.0914 -284.344 29.0914C-268.998 29.0914 -256.564 41.5257 -256.564 56.8714C-256.564 41.5257 -244.13 29.0914 -228.784 29.0914C-244.13 29.0914 -256.564 16.6571 -256.564 1.31141Z" fill="white"/>
<path d="M-473.77 36.3253C-471.881 37.9143 -469.536 39.2144 -466.725 40.2034C-463.914 41.2035 -461.069 41.6924 -458.18 41.6924C-461.514 47.0595 -463.903 52.3599 -465.336 57.5825C-468.914 56.4936 -472.248 55.0379 -475.337 53.2155C-478.426 51.4043 -480.96 49.2708 -482.949 46.8372C-486.882 51.4154 -493.272 55.0935 -502.117 57.8715C-504.306 50.6153 -506.673 45.3371 -509.206 42.0591C-510.351 47.2262 -511.473 52.6044 -512.562 58.1715L-531.286 55.2601L-528.597 47.3484C-527.152 43.1703 -525.797 39.1366 -524.53 35.2252C-523.263 31.3249 -522.152 27.7246 -521.207 24.4466L-517.996 24.9688C-519.885 21.9797 -522.041 18.8795 -524.452 15.6459C-526.863 12.4123 -529.041 9.72319 -530.975 7.58969L-514.418 0.200211C-512.329 3.28935 -509.695 7.68969 -506.506 13.4013C-504.817 9.52317 -503.795 5.20061 -503.45 0.422451L-487.716 0.422451L-488.238 3.03377L-458.48 3.03377C-458.536 11.1344 -458.869 17.8349 -459.491 23.1354C-460.114 28.4358 -461.369 33.1139 -463.258 37.192C-465.347 36.0475 -467.67 34.9585 -470.237 33.914C-472.803 32.8695 -475.026 32.0694 -476.915 31.5249C-476.715 33.1139 -475.67 34.7029 -473.781 36.3031L-473.77 36.3253ZM-514.94 25.5133L-506.806 26.7801C-507.806 25.5356 -509.04 24.2466 -510.54 22.902L-514.94 25.5133ZM-492.038 18.5017H-476.97V30.9582C-476.97 31.2027 -476.948 31.4027 -476.893 31.5583C-475.304 30.0137 -474.148 28.0691 -473.426 25.7022C-472.703 23.3465 -472.226 20.4463 -471.97 17.0127L-492.038 17.0127C-494.527 24.2243 -497.705 30.2915 -501.583 35.2141C-503.128 32.225 -504.539 29.8692 -505.839 28.1246C-507.084 33.0028 -508.106 37.2254 -508.895 40.8034C-497.661 39.9589 -492.038 35.8364 -492.038 28.4247V18.5017Z" fill="white"/>
<path d="M-388.886 23.7908V39.1587H-428.122V23.7908H-433.789V42.2145H-385.307V56.3823H-433.789V57.2045H-451.024V23.7908H-455.646V10.0675H-451.024V0.377808L-433.789 0.377808V10.0786H-428.122V0L-411.932 0V10.0675H-405.065V0L-388.874 0V10.0675H-382.985V23.7908H-388.886ZM-405.076 26.6243V23.7908H-411.943V26.6243H-405.076Z" fill="white"/>
<path d="M-310.557 40.1253C-310.357 41.9143 -310.257 43.8256 -310.257 45.8702C-310.257 49.8483 -311.024 52.6485 -312.568 54.2597C-314.113 55.871 -316.369 56.6821 -319.358 56.6821C-329.003 56.6821 -336.659 51.3817 -342.337 40.792C-344.326 37.0584 -346.115 32.6136 -347.704 27.4354L-356.805 27.8132C-356.805 23.6351 -356.927 20.5237 -357.183 18.4902C-357.583 20.8237 -358.05 22.7906 -358.605 24.3796V57.3489H-375.54V41.3809C-376.484 41.781 -377.351 42.081 -378.151 42.281C-378.496 39.003 -378.785 36.5361 -379.007 34.8915C-379.229 33.247 -379.64 31.3579 -380.24 29.2244C-380.84 27.0909 -381.685 24.8241 -382.774 22.435C-380.34 22.435 -378.451 22.1238 -377.107 21.5016C-375.762 20.8793 -374.873 20.1459 -374.418 19.3014C-374.018 18.5013 -373.818 16.1678 -373.818 12.2897C-373.818 9.25616 -373.995 5.4003 -374.34 0.733261L-355.838 0.811045C-355.938 2.20004 -355.983 3.30013 -355.983 4.08908C-356.183 8.16718 -356.383 11.223 -356.583 13.2676L-351.06 13.0453C-351.805 8.86724 -352.383 4.74469 -352.771 0.666589L-334.492 0.666589L-334.27 3.72239L-321.069 0.144326C-316.691 3.67794 -313.657 6.73374 -311.968 9.32283L-321.447 11.8564L-311.968 11.4786V25.9464L-323.302 26.3909C-319.924 28.1354 -316.091 29.4022 -311.813 30.1912C-311.168 35.0138 -310.746 38.3251 -310.546 40.1142L-310.557 40.1253ZM-333.159 12.3008L-326.225 12.0786C-328.07 9.54507 -330.725 6.91153 -334.203 4.16687C-334.003 6.80041 -333.659 9.51173 -333.159 12.3008ZM-323.98 34.3026C-324.48 31.469 -324.88 28.8577 -325.169 26.4686L-329.57 26.6909C-327.825 31.5135 -325.792 35.5916 -323.458 38.9252C-323.314 39.1252 -323.48 37.5806 -323.98 34.3026Z" fill="white"/>
<path d="M67.0283 1.31141C67.0283 16.6571 54.594 29.0914 39.2483 29.0914C54.594 29.0914 67.0283 41.5257 67.0283 56.8714C67.0283 41.5257 79.4626 29.0914 94.8082 29.0914C79.4626 29.0914 67.0283 16.6571 67.0283 1.31141Z" fill="white"/>
<path d="M-150.189 36.3253C-148.3 37.9143 -145.955 39.2144 -143.144 40.2034C-140.332 41.2035 -137.488 41.6924 -134.599 41.6924C-137.932 47.0595 -140.321 52.3599 -141.755 57.5825C-145.333 56.4936 -148.666 55.0379 -151.755 53.2155C-154.845 51.4043 -157.378 49.2708 -159.367 46.8372C-163.301 51.4154 -169.69 55.0935 -178.535 57.8715C-180.724 50.6153 -183.091 45.3371 -185.625 42.0591C-186.769 47.2262 -187.892 52.6044 -188.981 58.1715L-207.704 55.2601L-205.015 47.3484C-203.571 43.1703 -202.215 39.1366 -200.948 35.2252C-199.681 31.3249 -198.57 27.7246 -197.626 24.4466L-194.414 24.9688C-196.303 21.9797 -198.459 18.8795 -200.87 15.6459C-203.282 12.4123 -205.46 9.72319 -207.393 7.58969L-190.836 0.200211C-188.747 3.28935 -186.114 7.68969 -182.925 13.4013C-181.236 9.52317 -180.213 5.20061 -179.869 0.422451L-164.134 0.422451L-164.656 3.03377L-134.899 3.03377C-134.954 11.1344 -135.287 17.8349 -135.91 23.1354C-136.532 28.4358 -137.788 33.1139 -139.677 37.192C-141.766 36.0475 -144.088 34.9585 -146.655 33.914C-149.222 32.8695 -151.444 32.0694 -153.333 31.5249C-153.133 33.1139 -152.089 34.7029 -150.2 36.3031L-150.189 36.3253ZM-191.359 25.5133L-183.225 26.7801C-184.225 25.5356 -185.458 24.2466 -186.958 22.902L-191.359 25.5133ZM-168.457 18.5017H-153.389V30.9582C-153.389 31.2027 -153.367 31.4027 -153.311 31.5583C-151.722 30.0137 -150.567 28.0691 -149.844 25.7022C-149.122 23.3465 -148.644 20.4463 -148.389 17.0127H-168.457C-170.946 24.2243 -174.124 30.2915 -178.002 35.2141C-179.547 32.225 -180.958 29.8692 -182.258 28.1246C-183.502 33.0028 -184.525 37.2254 -185.314 40.8034C-174.079 39.9589 -168.457 35.8364 -168.457 28.4247V18.5017Z" fill="white"/>
<path d="M-65.2932 23.7908V39.1587H-104.53V23.7908H-110.197V42.2145H-61.7152V56.3823H-110.197V57.2045H-127.432V23.7908H-132.054V10.0675H-127.432V0.377808L-110.197 0.377808V10.0786H-104.53V0L-88.3395 0V10.0675H-81.4723V0L-65.2821 0V10.0675H-59.3927V23.7908H-65.2932ZM-81.4834 26.6243V23.7908H-88.3506V26.6243H-81.4834Z" fill="white"/>
<path d="M13.0242 40.1253C13.2242 41.9143 13.3242 43.8256 13.3242 45.8702C13.3242 49.8483 12.5575 52.6485 11.0129 54.2597C9.46837 55.871 7.21252 56.6821 4.22339 56.6821C-5.42182 56.6821 -13.0779 51.3817 -18.7561 40.792C-20.7452 37.0584 -22.5342 32.6136 -24.1232 27.4354L-33.224 27.8132C-33.224 23.6351 -33.3461 20.5237 -33.6017 18.4902C-34.0017 20.8237 -34.4684 22.7906 -35.024 24.3796V57.3489H-51.9587V41.3809C-52.9033 41.781 -53.77 42.081 -54.5701 42.281C-54.9145 39.003 -55.2034 36.5361 -55.4257 34.8915C-55.6479 33.247 -56.059 31.3579 -56.6591 29.2244C-57.2591 27.0909 -58.1037 24.8241 -59.1926 22.435C-56.7591 22.435 -54.8702 22.1238 -53.5256 21.5016C-52.1811 20.8793 -51.292 20.1459 -50.8364 19.3014C-50.4364 18.5013 -50.2365 16.1678 -50.2365 12.2897C-50.2365 9.25616 -50.4142 5.4003 -50.7587 0.733261L-32.2572 0.811045C-32.3572 2.20004 -32.4016 3.30013 -32.4016 4.08908C-32.6016 8.16718 -32.8017 11.223 -33.0017 13.2676L-27.479 13.0453C-28.2235 8.86724 -28.8014 4.74469 -29.1903 0.666589L-10.9111 0.666589L-10.6888 3.72239L2.51221 0.144326C6.89033 3.67794 9.92389 6.73374 11.6129 9.32283L2.1344 11.8564L11.6129 11.4786V25.9464L0.278687 26.3909C3.65673 28.1354 7.49044 29.4022 11.7686 30.1912C12.4131 35.0138 12.8353 38.3251 13.0353 40.1142L13.0242 40.1253ZM-9.57764 12.3008L-2.64368 12.0786C-4.48827 9.54507 -7.14414 6.91153 -10.6222 4.16687C-10.4222 6.80041 -10.0777 9.51173 -9.57764 12.3008ZM-0.399048 34.3026C-0.899088 31.469 -1.29922 28.8577 -1.58813 26.4686L-5.9884 26.6909C-4.24382 31.5135 -2.21035 35.5916 0.123169 38.9252C0.267625 39.1252 0.100992 37.5806 -0.399048 34.3026Z" fill="white"/>
<path d="M390.61 1.31141C390.61 16.6571 378.175 29.0914 362.83 29.0914C378.175 29.0914 390.61 41.5257 390.61 56.8714C390.61 41.5257 403.044 29.0914 418.39 29.0914C403.044 29.0914 390.61 16.6571 390.61 1.31141Z" fill="white"/>
<path d="M173.404 36.3253C175.293 37.9143 177.637 39.2144 180.449 40.2034C183.26 41.2035 186.105 41.6924 188.994 41.6924C185.66 47.0595 183.271 52.3599 181.838 57.5825C178.26 56.4936 174.926 55.0379 171.837 53.2155C168.748 51.4043 166.214 49.2708 164.225 46.8372C160.291 51.4154 153.902 55.0935 145.057 57.8715C142.868 50.6153 140.501 45.3371 137.968 42.0591C136.823 47.2262 135.701 52.6044 134.612 58.1715L115.888 55.2601L118.577 47.3484C120.022 43.1703 121.377 39.1366 122.644 35.2252C123.911 31.3249 125.022 27.7246 125.966 24.4466L129.178 24.9688C127.289 21.9797 125.133 18.8795 122.722 15.6459C120.31 12.4123 118.132 9.72319 116.199 7.58969L132.756 0.200211C134.845 3.28935 137.478 7.68969 140.668 13.4013C142.357 9.52317 143.379 5.20061 143.723 0.422451L159.458 0.422451L158.936 3.03377L188.694 3.03377C188.638 11.1344 188.305 17.8349 187.682 23.1354C187.06 28.4358 185.805 33.1139 183.916 37.192C181.826 36.0475 179.504 34.9585 176.937 33.914C174.37 32.8695 172.148 32.0694 170.259 31.5249C170.459 33.1139 171.504 34.7029 173.393 36.3031L173.404 36.3253ZM132.234 25.5133L140.368 26.7801C139.367 25.5356 138.134 24.2466 136.634 22.902L132.234 25.5133ZM155.135 18.5017L170.203 18.5017V30.9582C170.203 31.2027 170.226 31.4027 170.281 31.5583C171.87 30.0137 173.026 28.0691 173.748 25.7022C174.47 23.3465 174.948 20.4463 175.204 17.0127L155.135 17.0127C152.646 24.2243 149.468 30.2915 145.59 35.2141C144.046 32.225 142.634 29.8692 141.334 28.1246C140.09 33.0028 139.068 37.2254 138.279 40.8034C149.513 39.9589 155.135 35.8364 155.135 28.4247V18.5017Z" fill="white"/>
<path d="M258.288 23.7908V39.1587L219.052 39.1587V23.7908H213.384V42.2145L261.866 42.2145V56.3823L213.384 56.3823V57.2045H196.15V23.7908H191.527V10.0675H196.15V0.377808L213.384 0.377808V10.0786H219.052V0L235.242 0V10.0675H242.109V0L258.299 0V10.0675L264.188 10.0675V23.7908H258.288ZM242.098 26.6243V23.7908H235.231V26.6243H242.098Z" fill="white"/>
<path d="M336.606 40.1253C336.806 41.9143 336.906 43.8256 336.906 45.8702C336.906 49.8483 336.139 52.6485 334.594 54.2597C333.05 55.871 330.794 56.6821 327.805 56.6821C318.16 56.6821 310.504 51.3817 304.825 40.792C302.836 37.0584 301.047 32.6136 299.458 27.4354L290.358 27.8132C290.358 23.6351 290.235 20.5237 289.98 18.4902C289.58 20.8237 289.113 22.7906 288.557 24.3796V57.3489H271.623V41.3809C270.678 41.781 269.812 42.081 269.011 42.281C268.667 39.003 268.378 36.5361 268.156 34.8915C267.934 33.247 267.522 31.3579 266.922 29.2244C266.322 27.0909 265.478 24.8241 264.389 22.435C266.822 22.435 268.711 22.1238 270.056 21.5016C271.401 20.8793 272.289 20.1459 272.745 19.3014C273.145 18.5013 273.345 16.1678 273.345 12.2897C273.345 9.25616 273.167 5.4003 272.823 0.733261L291.324 0.811045C291.224 2.20004 291.18 3.30013 291.18 4.08908C290.98 8.16718 290.78 11.223 290.58 13.2676L296.103 13.0453C295.358 8.86724 294.78 4.74469 294.391 0.666589L312.671 0.666589L312.893 3.72239L326.094 0.144326C330.472 3.67794 333.506 6.73374 335.195 9.32283L325.716 11.8564L335.195 11.4786V25.9464L323.86 26.3909C327.238 28.1354 331.072 29.4022 335.35 30.1912C335.995 35.0138 336.417 38.3251 336.617 40.1142L336.606 40.1253ZM314.004 12.3008L320.938 12.0786C319.093 9.54507 316.438 6.91153 312.959 4.16687C313.159 6.80041 313.504 9.51173 314.004 12.3008ZM323.182 34.3026C322.682 31.469 322.282 28.8577 321.994 26.4686L317.593 26.6909C319.338 31.5135 321.371 35.5916 323.705 38.9252C323.849 39.1252 323.682 37.5806 323.182 34.3026Z" fill="white"/>
<path d="M714.191 1.31141C714.191 16.6571 701.757 29.0914 686.411 29.0914C701.757 29.0914 714.191 41.5257 714.191 56.8714C714.191 41.5257 726.626 29.0914 741.971 29.0914C726.626 29.0914 714.191 16.6571 714.191 1.31141Z" fill="white"/>
<path d="M496.985 36.3253C498.874 37.9143 501.218 39.2144 504.03 40.2034C506.841 41.2035 509.686 41.6924 512.575 41.6924C509.241 47.0595 506.852 52.3599 505.419 57.5825C501.841 56.4936 498.507 55.0379 495.418 53.2155C492.329 51.4043 489.795 49.2708 487.806 46.8372C483.872 51.4154 477.483 55.0935 468.638 57.8715C466.449 50.6153 464.082 45.3371 461.548 42.0591C460.404 47.2262 459.282 52.6044 458.193 58.1715L439.469 55.2601L442.158 47.3484C443.603 43.1703 444.958 39.1366 446.225 35.2252C447.492 31.3249 448.603 27.7246 449.547 24.4466L452.759 24.9688C450.87 21.9797 448.714 18.8795 446.303 15.6459C443.892 12.4123 441.714 9.72319 439.78 7.58969L456.337 0.200211C458.426 3.28935 461.06 7.68969 464.249 13.4013C465.938 9.52317 466.96 5.20061 467.304 0.422451L483.039 0.422451L482.517 3.03377L512.275 3.03377C512.219 11.1344 511.886 17.8349 511.263 23.1354C510.641 28.4358 509.385 33.1139 507.496 37.192C505.407 36.0475 503.085 34.9585 500.518 33.914C497.951 32.8695 495.729 32.0694 493.84 31.5249C494.04 33.1139 495.084 34.7029 496.974 36.3031L496.985 36.3253ZM455.815 25.5133L463.949 26.7801C462.949 25.5356 461.715 24.2466 460.215 22.902L455.815 25.5133ZM478.716 18.5017H493.784V30.9582C493.784 31.2027 493.807 31.4027 493.862 31.5583C495.451 30.0137 496.607 28.0691 497.329 25.7022C498.051 23.3465 498.529 20.4463 498.785 17.0127H478.716C476.227 24.2243 473.049 30.2915 469.171 35.2141C467.627 32.225 466.216 29.8692 464.915 28.1246C463.671 33.0028 462.649 37.2254 461.86 40.8034C473.094 39.9589 478.716 35.8364 478.716 28.4247V18.5017Z" fill="white"/>
<path d="M581.87 23.7908V39.1587H542.633V23.7908H536.966V42.2145H585.448V56.3823H536.966V57.2045H519.731V23.7908H515.109V10.0675L519.731 10.0675V0.377808L536.966 0.377808V10.0786H542.633V0L558.823 0V10.0675H565.69V0L581.881 0V10.0675H587.77V23.7908H581.87ZM565.679 26.6243V23.7908H558.812V26.6243H565.679Z" fill="white"/>
<path d="M660.187 40.1253C660.387 41.9143 660.487 43.8256 660.487 45.8702C660.487 49.8483 659.72 52.6485 658.175 54.2597C656.631 55.871 654.375 56.6821 651.386 56.6821C641.741 56.6821 634.084 51.3817 628.406 40.792C626.417 37.0584 624.628 32.6136 623.039 27.4354L613.938 27.8132C613.938 23.6351 613.816 20.5237 613.561 18.4902C613.161 20.8237 612.694 22.7906 612.138 24.3796V57.3489H595.204V41.3809C594.259 41.781 593.392 42.081 592.592 42.281C592.248 39.003 591.959 36.5361 591.737 34.8915C591.514 33.247 591.103 31.3579 590.503 29.2244C589.903 27.0909 589.059 24.8241 587.97 22.435C590.403 22.435 592.292 22.1238 593.637 21.5016C594.981 20.8793 595.87 20.1459 596.326 19.3014C596.726 18.5013 596.926 16.1678 596.926 12.2897C596.926 9.25616 596.748 5.4003 596.404 0.733261L614.905 0.811045C614.805 2.20004 614.761 3.30013 614.761 4.08908C614.561 8.16718 614.361 11.223 614.161 13.2676L619.683 13.0453C618.939 8.86724 618.361 4.74469 617.972 0.666589L636.251 0.666589L636.474 3.72239L649.675 0.144326C654.053 3.67794 657.086 6.73374 658.775 9.32283L649.297 11.8564L658.775 11.4786V25.9464L647.441 26.3909C650.819 28.1354 654.653 29.4022 658.931 30.1912C659.575 35.0138 659.998 38.3251 660.198 40.1142L660.187 40.1253ZM637.585 12.3008L644.519 12.0786C642.674 9.54507 640.018 6.91153 636.54 4.16687C636.74 6.80041 637.085 9.51173 637.585 12.3008ZM646.763 34.3026C646.263 31.469 645.863 28.8577 645.574 26.4686L641.174 26.6909C642.919 31.5135 644.952 35.5916 647.286 38.9252C647.43 39.1252 647.263 37.5806 646.763 34.3026Z" fill="white"/>
<path d="M1037.78 1.31141C1037.78 16.6571 1025.35 29.0914 1010 29.0914C1025.35 29.0914 1037.78 41.5257 1037.78 56.8714C1037.78 41.5257 1050.22 29.0914 1065.56 29.0914C1050.22 29.0914 1037.78 16.6571 1037.78 1.31141Z" fill="white"/>
<path d="M820.566 36.3253C822.455 37.9143 824.8 39.2144 827.611 40.2034C830.423 41.2035 833.267 41.6924 836.156 41.6924C832.823 47.0595 830.434 52.3599 829 57.5825C825.422 56.4936 822.089 55.0379 818.999 53.2155C815.91 51.4043 813.377 49.2708 811.388 46.8372C807.454 51.4154 801.065 55.0935 792.219 57.8715C790.03 50.6153 787.663 45.3371 785.13 42.0591C783.985 47.2262 782.863 52.6044 781.774 58.1715L763.05 55.2601L765.74 47.3484C767.184 43.1703 768.54 39.1366 769.807 35.2252C771.073 31.3249 772.185 27.7246 773.129 24.4466L776.34 24.9688C774.451 21.9797 772.296 18.8795 769.884 15.6459C767.473 12.4123 765.295 9.72319 763.362 7.58969L779.918 0.200211C782.008 3.28935 784.641 7.68969 787.83 13.4013C789.519 9.52317 790.542 5.20061 790.886 0.422451L806.621 0.422451L806.098 3.03377L835.856 3.03377C835.801 11.1344 835.467 17.8349 834.845 23.1354C834.223 28.4358 832.967 33.1139 831.078 37.192C828.989 36.0475 826.667 34.9585 824.1 33.914C821.533 32.8695 819.31 32.0694 817.421 31.5249C817.621 33.1139 818.666 34.7029 820.555 36.3031L820.566 36.3253ZM779.396 25.5133L787.53 26.7801C786.53 25.5356 785.297 24.2466 783.797 22.902L779.396 25.5133ZM802.298 18.5017L817.366 18.5017V30.9582C817.366 31.2027 817.388 31.4027 817.444 31.5583C819.033 30.0137 820.188 28.0691 820.911 25.7022C821.633 23.3465 822.111 20.4463 822.366 17.0127L802.298 17.0127C799.809 24.2243 796.631 30.2915 792.753 35.2141C791.208 32.225 789.797 29.8692 788.497 28.1246C787.252 33.0028 786.23 37.2254 785.441 40.8034C796.675 39.9589 802.298 35.8364 802.298 28.4247V18.5017Z" fill="white"/>
<path d="M905.451 23.7908V39.1587H866.214V23.7908H860.547V42.2145H909.029V56.3823H860.547V57.2045H843.313V23.7908H838.69V10.0675H843.313V0.377808L860.547 0.377808V10.0786H866.214V0L882.405 0V10.0675H889.272V0L905.462 0V10.0675H911.351V23.7908H905.451ZM889.261 26.6243V23.7908H882.394V26.6243H889.261Z" fill="white"/>
<path d="M983.779 40.1253C983.979 41.9143 984.079 43.8256 984.079 45.8702C984.079 49.8483 983.312 52.6485 981.768 54.2597C980.223 55.871 977.967 56.6821 974.978 56.6821C965.333 56.6821 957.677 51.3817 951.999 40.792C950.009 37.0584 948.221 32.6136 946.632 27.4354L937.531 27.8132C937.531 23.6351 937.409 20.5237 937.153 18.4902C936.753 20.8237 936.286 22.7906 935.731 24.3796V57.3489H918.796V41.3809C917.851 41.781 916.985 42.081 916.185 42.281C915.84 39.003 915.551 36.5361 915.329 34.8915C915.107 33.247 914.696 31.3579 914.096 29.2244C913.496 27.0909 912.651 24.8241 911.562 22.435C913.996 22.435 915.885 22.1238 917.229 21.5016C918.574 20.8793 919.463 20.1459 919.918 19.3014C920.318 18.5013 920.518 16.1678 920.518 12.2897C920.518 9.25616 920.341 5.4003 919.996 0.733261L938.498 0.811045C938.398 2.20004 938.353 3.30013 938.353 4.08908C938.153 8.16718 937.953 11.223 937.753 13.2676L943.276 13.0453C942.531 8.86724 941.953 4.74469 941.564 0.666589L959.844 0.666589L960.066 3.72239L973.267 0.144326C977.645 3.67794 980.679 6.73374 982.368 9.32283L972.889 11.8564L982.368 11.4786V25.9464L971.033 26.3909C974.411 28.1354 978.245 29.4022 982.523 30.1912C983.168 35.0138 983.59 38.3251 983.79 40.1142L983.779 40.1253ZM961.177 12.3008L968.111 12.0786C966.266 9.54507 963.611 6.91153 960.133 4.16687C960.333 6.80041 960.677 9.51173 961.177 12.3008ZM970.356 34.3026C969.856 31.469 969.455 28.8577 969.167 26.4686L964.766 26.6909C966.511 31.5135 968.544 35.5916 970.878 38.9252C971.022 39.1252 970.856 37.5806 970.356 34.3026Z" fill="white"/>
<path d="M1361.36 1.31141C1361.36 16.6571 1348.93 29.0914 1333.58 29.0914C1348.93 29.0914 1361.36 41.5257 1361.36 56.8714C1361.36 41.5257 1373.8 29.0914 1389.14 29.0914C1373.8 29.0914 1361.36 16.6571 1361.36 1.31141Z" fill="white"/>
<path d="M1144.16 36.3253C1146.05 37.9143 1148.39 39.2144 1151.2 40.2034C1154.01 41.2035 1156.86 41.6924 1159.75 41.6924C1156.41 47.0595 1154.03 52.3599 1152.59 57.5825C1149.01 56.4936 1145.68 55.0379 1142.59 53.2155C1139.5 51.4043 1136.97 49.2708 1134.98 46.8372C1131.05 51.4154 1124.66 55.0935 1115.81 57.8715C1113.62 50.6153 1111.26 45.3371 1108.72 42.0591C1107.58 47.2262 1106.46 52.6044 1105.37 58.1715L1086.64 55.2601L1089.33 47.3484C1090.78 43.1703 1092.13 39.1366 1093.4 35.2252C1094.67 31.3249 1095.78 27.7246 1096.72 24.4466L1099.93 24.9688C1098.04 21.9797 1095.89 18.8795 1093.48 15.6459C1091.07 12.4123 1088.89 9.72319 1086.95 7.58969L1103.51 0.200211C1105.6 3.28935 1108.23 7.68969 1111.42 13.4013C1113.11 9.52317 1114.13 5.20061 1114.48 0.422451L1130.21 0.422451L1129.69 3.03377L1159.45 3.03377C1159.39 11.1344 1159.06 17.8349 1158.44 23.1354C1157.81 28.4358 1156.56 33.1139 1154.67 37.192C1152.58 36.0475 1150.26 34.9585 1147.69 33.914C1145.13 32.8695 1142.9 32.0694 1141.01 31.5249C1141.21 33.1139 1142.26 34.7029 1144.15 36.3031L1144.16 36.3253ZM1102.99 25.5133L1111.12 26.7801C1110.12 25.5356 1108.89 24.2466 1107.39 22.902L1102.99 25.5133ZM1125.89 18.5017H1140.96V30.9582C1140.96 31.2027 1140.98 31.4027 1141.04 31.5583C1142.63 30.0137 1143.78 28.0691 1144.5 25.7022C1145.22 23.3465 1145.7 20.4463 1145.96 17.0127H1125.89C1123.4 24.2243 1120.22 30.2915 1116.34 35.2141C1114.8 32.225 1113.39 29.8692 1112.09 28.1246C1110.84 33.0028 1109.82 37.2254 1109.03 40.8034C1120.27 39.9589 1125.89 35.8364 1125.89 28.4247V18.5017Z" fill="white"/>
<path d="M1229.04 23.7908V39.1587H1189.81V23.7908L1184.14 23.7908V42.2145H1232.62V56.3823H1184.14V57.2045H1166.9V23.7908H1162.28V10.0675H1166.9V0.377808L1184.14 0.377808V10.0786H1189.81V0L1206 0V10.0675H1212.86V0L1229.05 0V10.0675H1234.94V23.7908H1229.04ZM1212.85 26.6243V23.7908H1205.99V26.6243H1212.85Z" fill="white"/>
<path d="M1307.36 40.1253C1307.56 41.9143 1307.66 43.8256 1307.66 45.8702C1307.66 49.8483 1306.89 52.6485 1305.35 54.2597C1303.8 55.871 1301.55 56.6821 1298.56 56.6821C1288.91 56.6821 1281.26 51.3817 1275.58 40.792C1273.59 37.0584 1271.8 32.6136 1270.21 27.4354L1261.11 27.8132C1261.11 23.6351 1260.99 20.5237 1260.73 18.4902C1260.33 20.8237 1259.87 22.7906 1259.31 24.3796V57.3489L1242.38 57.3489V41.3809C1241.43 41.781 1240.57 42.081 1239.77 42.281C1239.42 39.003 1239.13 36.5361 1238.91 34.8915C1238.69 33.247 1238.28 31.3579 1237.68 29.2244C1237.08 27.0909 1236.23 24.8241 1235.14 22.435C1237.58 22.435 1239.47 22.1238 1240.81 21.5016C1242.16 20.8793 1243.04 20.1459 1243.5 19.3014C1243.9 18.5013 1244.1 16.1678 1244.1 12.2897C1244.1 9.25616 1243.92 5.4003 1243.58 0.733261L1262.08 0.811045C1261.98 2.20004 1261.93 3.30013 1261.93 4.08908C1261.73 8.16718 1261.53 11.223 1261.33 13.2676L1266.86 13.0453C1266.11 8.86724 1265.53 4.74469 1265.15 0.666589L1283.43 0.666589L1283.65 3.72239L1296.85 0.144326C1301.23 3.67794 1304.26 6.73374 1305.95 9.32283L1296.47 11.8564L1305.95 11.4786V25.9464L1294.61 26.3909C1297.99 28.1354 1301.83 29.4022 1306.1 30.1912C1306.75 35.0138 1307.17 38.3251 1307.37 40.1142L1307.36 40.1253ZM1284.76 12.3008L1291.69 12.0786C1289.85 9.54507 1287.19 6.91153 1283.71 4.16687C1283.91 6.80041 1284.26 9.51173 1284.76 12.3008ZM1293.94 34.3026C1293.44 31.469 1293.04 28.8577 1292.75 26.4686L1288.35 26.6909C1290.09 31.5135 1292.13 35.5916 1294.46 38.9252C1294.6 39.1252 1294.44 37.5806 1293.94 34.3026Z" fill="white"/>
<path d="M1684.95 1.31141C1684.95 16.6571 1672.51 29.0914 1657.17 29.0914C1672.51 29.0914 1684.95 41.5257 1684.95 56.8714C1684.95 41.5257 1697.38 29.0914 1712.73 29.0914C1697.38 29.0914 1684.95 16.6571 1684.95 1.31141Z" fill="white"/>
<path d="M1467.74 36.3253C1469.63 37.9143 1471.97 39.2144 1474.78 40.2034C1477.6 41.2035 1480.44 41.6924 1483.33 41.6924C1480 47.0595 1477.61 52.3599 1476.17 57.5825C1472.6 56.4936 1469.26 55.0379 1466.17 53.2155C1463.08 51.4043 1460.55 49.2708 1458.56 46.8372C1454.63 51.4154 1448.24 55.0935 1439.39 57.8715C1437.2 50.6153 1434.84 45.3371 1432.3 42.0591C1431.16 47.2262 1430.04 52.6044 1428.95 58.1715L1410.22 55.2601L1412.91 47.3484C1414.36 43.1703 1415.71 39.1366 1416.98 35.2252C1418.25 31.3249 1419.36 27.7246 1420.3 24.4466L1423.51 24.9688C1421.63 21.9797 1419.47 18.8795 1417.06 15.6459C1414.65 12.4123 1412.47 9.72319 1410.54 7.58969L1427.09 0.200211C1429.18 3.28935 1431.81 7.68969 1435 13.4013C1436.69 9.52317 1437.72 5.20061 1438.06 0.422451L1453.79 0.422451L1453.27 3.03377L1483.03 3.03377C1482.97 11.1344 1482.64 17.8349 1482.02 23.1354C1481.4 28.4358 1480.14 33.1139 1478.25 37.192C1476.16 36.0475 1473.84 34.9585 1471.27 33.914C1468.71 32.8695 1466.48 32.0694 1464.6 31.5249C1464.8 33.1139 1465.84 34.7029 1467.73 36.3031L1467.74 36.3253ZM1426.57 25.5133L1434.7 26.7801C1433.7 25.5356 1432.47 24.2466 1430.97 22.902L1426.57 25.5133ZM1449.47 18.5017H1464.54V30.9582C1464.54 31.2027 1464.56 31.4027 1464.62 31.5583C1466.21 30.0137 1467.36 28.0691 1468.08 25.7022C1468.81 23.3465 1469.28 20.4463 1469.54 17.0127H1449.47C1446.98 24.2243 1443.8 30.2915 1439.93 35.2141C1438.38 32.225 1436.97 29.8692 1435.67 28.1246C1434.43 33.0028 1433.4 37.2254 1432.61 40.8034C1443.85 39.9589 1449.47 35.8364 1449.47 28.4247V18.5017Z" fill="white"/>
<path d="M1552.62 23.7908V39.1587H1513.39V23.7908H1507.72V42.2145L1556.2 42.2145V56.3823L1507.72 56.3823V57.2045H1490.49V23.7908H1485.86V10.0675H1490.49V0.377808L1507.72 0.377808V10.0786H1513.39V0L1529.58 0V10.0675H1536.45V0L1552.64 0V10.0675H1558.52V23.7908H1552.62ZM1536.43 26.6243V23.7908H1529.57V26.6243H1536.43Z" fill="white"/>
<path d="M1630.94 40.1253C1631.14 41.9143 1631.24 43.8256 1631.24 45.8702C1631.24 49.8483 1630.47 52.6485 1628.93 54.2597C1627.39 55.871 1625.13 56.6821 1622.14 56.6821C1612.5 56.6821 1604.84 51.3817 1599.16 40.792C1597.17 37.0584 1595.38 32.6136 1593.79 27.4354L1584.69 27.8132C1584.69 23.6351 1584.57 20.5237 1584.32 18.4902C1583.92 20.8237 1583.45 22.7906 1582.89 24.3796V57.3489H1565.96V41.3809C1565.01 41.781 1564.15 42.081 1563.35 42.281C1563 39.003 1562.71 36.5361 1562.49 34.8915C1562.27 33.247 1561.86 31.3579 1561.26 29.2244C1560.66 27.0909 1559.81 24.8241 1558.72 22.435C1561.16 22.435 1563.05 22.1238 1564.39 21.5016C1565.74 20.8793 1566.63 20.1459 1567.08 19.3014C1567.48 18.5013 1567.68 16.1678 1567.68 12.2897C1567.68 9.25616 1567.5 5.4003 1567.16 0.733261L1585.66 0.811045C1585.56 2.20004 1585.52 3.30013 1585.52 4.08908C1585.32 8.16718 1585.12 11.223 1584.92 13.2676L1590.44 13.0453C1589.69 8.86724 1589.12 4.74469 1588.73 0.666589L1607.01 0.666589L1607.23 3.72239L1620.43 0.144326C1624.81 3.67794 1627.84 6.73374 1629.53 9.32283L1620.05 11.8564L1629.53 11.4786V25.9464L1618.2 26.3909C1621.57 28.1354 1625.41 29.4022 1629.69 30.1912C1630.33 35.0138 1630.75 38.3251 1630.95 40.1142L1630.94 40.1253ZM1608.34 12.3008L1615.27 12.0786C1613.43 9.54507 1610.77 6.91153 1607.29 4.16687C1607.49 6.80041 1607.84 9.51173 1608.34 12.3008ZM1617.52 34.3026C1617.02 31.469 1616.62 28.8577 1616.33 26.4686L1611.93 26.6909C1613.67 31.5135 1615.71 35.5916 1618.04 38.9252C1618.18 39.1252 1618.02 37.5806 1617.52 34.3026Z" fill="white"/>
<path d="M2008.53 1.31141C2008.53 16.6571 1996.09 29.0914 1980.75 29.0914C1996.09 29.0914 2008.53 41.5257 2008.53 56.8714C2008.53 41.5257 2020.96 29.0914 2036.31 29.0914C2020.96 29.0914 2008.53 16.6571 2008.53 1.31141Z" fill="white"/>
<path d="M1791.32 36.3253C1793.21 37.9143 1795.55 39.2144 1798.37 40.2034C1801.18 41.2035 1804.02 41.6924 1806.91 41.6924C1803.58 47.0595 1801.19 52.3599 1799.76 57.5825C1796.18 56.4936 1792.84 55.0379 1789.75 53.2155C1786.67 51.4043 1784.13 49.2708 1782.14 46.8372C1778.21 51.4154 1771.82 55.0935 1762.97 57.8715C1760.79 50.6153 1758.42 45.3371 1755.89 42.0591C1754.74 47.2262 1753.62 52.6044 1752.53 58.1715L1733.81 55.2601L1736.49 47.3484C1737.94 43.1703 1739.29 39.1366 1740.56 35.2252C1741.83 31.3249 1742.94 27.7246 1743.88 24.4466L1747.1 24.9688C1745.21 21.9797 1743.05 18.8795 1740.64 15.6459C1738.23 12.4123 1736.05 9.72319 1734.12 7.58969L1750.67 0.200211C1752.76 3.28935 1755.4 7.68969 1758.59 13.4013C1760.27 9.52317 1761.3 5.20061 1761.64 0.422451L1777.38 0.422451L1776.85 3.03377L1806.61 3.03377C1806.56 11.1344 1806.22 17.8349 1805.6 23.1354C1804.98 28.4358 1803.72 33.1139 1801.83 37.192C1799.74 36.0475 1797.42 34.9585 1794.85 33.914C1792.29 32.8695 1790.07 32.0694 1788.18 31.5249C1788.38 33.1139 1789.42 34.7029 1791.31 36.3031L1791.32 36.3253ZM1750.15 25.5133L1758.29 26.7801C1757.29 25.5356 1756.05 24.2466 1754.55 22.902L1750.15 25.5133ZM1773.05 18.5017H1788.12V30.9582C1788.12 31.2027 1788.14 31.4027 1788.2 31.5583C1789.79 30.0137 1790.94 28.0691 1791.67 25.7022C1792.39 23.3465 1792.87 20.4463 1793.12 17.0127H1773.05C1770.56 24.2243 1767.39 30.2915 1763.51 35.2141C1761.96 32.225 1760.55 29.8692 1759.25 28.1246C1758.01 33.0028 1756.99 37.2254 1756.2 40.8034C1767.43 39.9589 1773.05 35.8364 1773.05 28.4247V18.5017Z" fill="white"/>
<path d="M1876.21 23.7908V39.1587H1836.97V23.7908H1831.3V42.2145H1879.78V56.3823H1831.3V57.2045H1814.07V23.7908H1809.44V10.0675H1814.07V0.377808L1831.3 0.377808V10.0786H1836.97V0L1853.16 0V10.0675H1860.03V0L1876.22 0V10.0675H1882.11V23.7908H1876.21ZM1860.01 26.6243V23.7908H1853.15V26.6243H1860.01Z" fill="white"/>
<path d="M1954.53 40.1253C1954.73 41.9143 1954.83 43.8256 1954.83 45.8702C1954.83 49.8483 1954.07 52.6485 1952.52 54.2597C1950.98 55.871 1948.72 56.6821 1945.73 56.6821C1936.09 56.6821 1928.43 51.3817 1922.75 40.792C1920.76 37.0584 1918.98 32.6136 1917.39 27.4354L1908.29 27.8132C1908.29 23.6351 1908.16 20.5237 1907.91 18.4902C1907.51 20.8237 1907.04 22.7906 1906.49 24.3796V57.3489H1889.55V41.3809C1888.61 41.781 1887.74 42.081 1886.94 42.281C1886.59 39.003 1886.31 36.5361 1886.08 34.8915C1885.86 33.247 1885.45 31.3579 1884.85 29.2244C1884.25 27.0909 1883.41 24.8241 1882.32 22.435C1884.75 22.435 1886.64 22.1238 1887.98 21.5016C1889.33 20.8793 1890.22 20.1459 1890.67 19.3014C1891.07 18.5013 1891.27 16.1678 1891.27 12.2897C1891.27 9.25616 1891.1 5.4003 1890.75 0.733261L1909.25 0.811045C1909.15 2.20004 1909.11 3.30013 1909.11 4.08908C1908.91 8.16718 1908.71 11.223 1908.51 13.2676L1914.03 13.0453C1913.29 8.86724 1912.71 4.74469 1912.32 0.666589L1930.6 0.666589L1930.82 3.72239L1944.02 0.144326C1948.4 3.67794 1951.43 6.73374 1953.12 9.32283L1943.64 11.8564L1953.12 11.4786V25.9464L1941.79 26.3909C1945.17 28.1354 1949 29.4022 1953.28 30.1912C1953.92 35.0138 1954.34 38.3251 1954.54 40.1142L1954.53 40.1253ZM1931.93 12.3008L1938.87 12.0786C1937.02 9.54507 1934.37 6.91153 1930.89 4.16687C1931.09 6.80041 1931.43 9.51173 1931.93 12.3008ZM1941.11 34.3026C1940.61 31.469 1940.21 28.8577 1939.92 26.4686L1935.52 26.6909C1937.27 31.5135 1939.3 35.5916 1941.63 38.9252C1941.78 39.1252 1941.61 37.5806 1941.11 34.3026Z" fill="white"/>
<path d="M2332.12 1.31141C2332.12 16.6571 2319.69 29.0914 2304.34 29.0914C2319.69 29.0914 2332.12 41.5257 2332.12 56.8714C2332.12 41.5257 2344.55 29.0914 2359.9 29.0914C2344.55 29.0914 2332.12 16.6571 2332.12 1.31141Z" fill="white"/>
<path d="M2114.9 36.3253C2116.79 37.9143 2119.14 39.2144 2121.95 40.2034C2124.76 41.2035 2127.6 41.6924 2130.49 41.6924C2127.16 47.0595 2124.77 52.3599 2123.34 57.5825C2119.76 56.4936 2116.42 55.0379 2113.34 53.2155C2110.25 51.4043 2107.71 49.2708 2105.72 46.8372C2101.79 51.4154 2095.4 55.0935 2086.56 57.8715C2084.37 50.6153 2082 45.3371 2079.47 42.0591C2078.32 47.2262 2077.2 52.6044 2076.11 58.1715L2057.39 55.2601L2060.08 47.3484C2061.52 43.1703 2062.88 39.1366 2064.14 35.2252C2065.41 31.3249 2066.52 27.7246 2067.47 24.4466L2070.68 24.9688C2068.79 21.9797 2066.63 18.8795 2064.22 15.6459C2061.81 12.4123 2059.63 9.72319 2057.7 7.58969L2074.25 0.200211C2076.34 3.28935 2078.98 7.68969 2082.17 13.4013C2083.86 9.52317 2084.88 5.20061 2085.22 0.422451L2100.96 0.422451L2100.43 3.03377L2130.19 3.03377C2130.14 11.1344 2129.8 17.8349 2129.18 23.1354C2128.56 28.4358 2127.3 33.1139 2125.41 37.192C2123.33 36.0475 2121 34.9585 2118.44 33.914C2115.87 32.8695 2113.65 32.0694 2111.76 31.5249C2111.96 33.1139 2113 34.7029 2114.89 36.3031L2114.9 36.3253ZM2073.73 25.5133L2081.87 26.7801C2080.87 25.5356 2079.63 24.2466 2078.13 22.902L2073.73 25.5133ZM2096.63 18.5017H2111.7V30.9582C2111.7 31.2027 2111.72 31.4027 2111.78 31.5583C2113.37 30.0137 2114.52 28.0691 2115.25 25.7022C2115.97 23.3465 2116.45 20.4463 2116.7 17.0127H2096.63C2094.15 24.2243 2090.97 30.2915 2087.09 35.2141C2085.54 32.225 2084.13 29.8692 2082.83 28.1246C2081.59 33.0028 2080.57 37.2254 2079.78 40.8034C2091.01 39.9589 2096.63 35.8364 2096.63 28.4247V18.5017Z" fill="white"/>
<path d="M2199.8 23.7908V39.1587H2160.56V23.7908H2154.89V42.2145H2203.38V56.3823H2154.89V57.2045H2137.66V23.7908H2133.04V10.0675H2137.66V0.377808L2154.89 0.377808V10.0786H2160.56V0L2176.75 0V10.0675L2183.62 10.0675V0L2199.81 0V10.0675H2205.7V23.7908H2199.8ZM2183.61 26.6243V23.7908H2176.74V26.6243H2183.61Z" fill="white"/>
<path d="M2278.12 40.1253C2278.32 41.9143 2278.42 43.8256 2278.42 45.8702C2278.42 49.8483 2277.65 52.6485 2276.1 54.2597C2274.56 55.871 2272.3 56.6821 2269.31 56.6821C2259.67 56.6821 2252.01 51.3817 2246.33 40.792C2244.35 37.0584 2242.56 32.6136 2240.97 27.4354L2231.87 27.8132C2231.87 23.6351 2231.74 20.5237 2231.49 18.4902C2231.09 20.8237 2230.62 22.7906 2230.07 24.3796V57.3489H2213.13V41.3809C2212.19 41.781 2211.32 42.081 2210.52 42.281C2210.18 39.003 2209.89 36.5361 2209.67 34.8915C2209.44 33.247 2209.03 31.3579 2208.43 29.2244C2207.83 27.0909 2206.99 24.8241 2205.9 22.435C2208.33 22.435 2210.22 22.1238 2211.57 21.5016C2212.91 20.8793 2213.8 20.1459 2214.25 19.3014C2214.65 18.5013 2214.85 16.1678 2214.85 12.2897C2214.85 9.25616 2214.68 5.4003 2214.33 0.733261L2232.83 0.811045C2232.73 2.20004 2232.69 3.30013 2232.69 4.08908C2232.49 8.16718 2232.29 11.223 2232.09 13.2676L2237.61 13.0453C2236.87 8.86724 2236.29 4.74469 2235.9 0.666589L2254.18 0.666589L2254.4 3.72239L2267.6 0.144326C2271.98 3.67794 2275.01 6.73374 2276.7 9.32283L2267.23 11.8564L2276.7 11.4786V25.9464L2265.37 26.3909C2268.75 28.1354 2272.58 29.4022 2276.86 30.1912C2277.5 35.0138 2277.93 38.3251 2278.13 40.1142L2278.12 40.1253ZM2255.51 12.3008L2262.45 12.0786C2260.6 9.54507 2257.95 6.91153 2254.47 4.16687C2254.67 6.80041 2255.01 9.51173 2255.51 12.3008ZM2264.69 34.3026C2264.19 31.469 2263.79 28.8577 2263.5 26.4686L2259.1 26.6909C2260.85 31.5135 2262.88 35.5916 2265.21 38.9252C2265.36 39.1252 2265.19 37.5806 2264.69 34.3026Z" fill="white"/>
<path d="M2655.7 1.31141C2655.7 16.6571 2643.27 29.0914 2627.92 29.0914C2643.27 29.0914 2655.7 41.5257 2655.7 56.8714C2655.7 41.5257 2668.14 29.0914 2683.48 29.0914C2668.14 29.0914 2655.7 16.6571 2655.7 1.31141Z" fill="white"/>
<path d="M2438.49 36.3253C2440.38 37.9143 2442.73 39.2144 2445.54 40.2034C2448.35 41.2035 2451.2 41.6924 2454.08 41.6924C2450.75 47.0595 2448.36 52.3599 2446.93 57.5825C2443.35 56.4936 2440.02 55.0379 2436.93 53.2155C2433.84 51.4043 2431.31 49.2708 2429.32 46.8372C2425.38 51.4154 2418.99 55.0935 2410.15 57.8715C2407.96 50.6153 2405.59 45.3371 2403.06 42.0591C2401.91 47.2262 2400.79 52.6044 2399.7 58.1715L2380.98 55.2601L2383.67 47.3484C2385.11 43.1703 2386.47 39.1366 2387.74 35.2252C2389 31.3249 2390.11 27.7246 2391.06 24.4466L2394.27 24.9688C2392.38 21.9797 2390.22 18.8795 2387.81 15.6459C2385.4 12.4123 2383.22 9.72319 2381.29 7.58969L2397.85 0.200211C2399.94 3.28935 2402.57 7.68969 2405.76 13.4013C2407.45 9.52317 2408.47 5.20061 2408.81 0.422451L2424.55 0.422451L2424.03 3.03377L2453.78 3.03377C2453.73 11.1344 2453.4 17.8349 2452.77 23.1354C2452.15 28.4358 2450.9 33.1139 2449.01 37.192C2446.92 36.0475 2444.59 34.9585 2442.03 33.914C2439.46 32.8695 2437.24 32.0694 2435.35 31.5249C2435.55 33.1139 2436.59 34.7029 2438.48 36.3031L2438.49 36.3253ZM2397.32 25.5133L2405.46 26.7801C2404.46 25.5356 2403.22 24.2466 2401.72 22.902L2397.32 25.5133ZM2420.23 18.5017H2435.29V30.9582C2435.29 31.2027 2435.32 31.4027 2435.37 31.5583C2436.96 30.0137 2438.12 28.0691 2438.84 25.7022C2439.56 23.3465 2440.04 20.4463 2440.29 17.0127H2420.23C2417.74 24.2243 2414.56 30.2915 2410.68 35.2141C2409.14 32.225 2407.73 29.8692 2406.43 28.1246C2405.18 33.0028 2404.16 37.2254 2403.37 40.8034C2414.6 39.9589 2420.23 35.8364 2420.23 28.4247V18.5017Z" fill="white"/>
<path d="M2523.38 23.7908V39.1587H2484.14V23.7908H2478.48V42.2145H2526.96V56.3823H2478.48V57.2045H2461.24V23.7908H2456.62V10.0675H2461.24V0.377808L2478.48 0.377808V10.0786H2484.14V0L2500.33 0V10.0675L2507.2 10.0675V0L2523.39 0V10.0675H2529.28V23.7908H2523.38ZM2507.19 26.6243V23.7908H2500.32V26.6243H2507.19Z" fill="white"/>
<path d="M2601.7 40.1253C2601.9 41.9143 2602 43.8256 2602 45.8702C2602 49.8483 2601.23 52.6485 2599.69 54.2597C2598.14 55.871 2595.88 56.6821 2592.9 56.6821C2583.25 56.6821 2575.59 51.3817 2569.92 40.792C2567.93 37.0584 2566.14 32.6136 2564.55 27.4354L2555.45 27.8132C2555.45 23.6351 2555.33 20.5237 2555.07 18.4902C2554.67 20.8237 2554.2 22.7906 2553.65 24.3796V57.3489H2536.71V41.3809C2535.77 41.781 2534.9 42.081 2534.1 42.281C2533.76 39.003 2533.47 36.5361 2533.25 34.8915C2533.02 33.247 2532.61 31.3579 2532.01 29.2244C2531.41 27.0909 2530.57 24.8241 2529.48 22.435C2531.91 22.435 2533.8 22.1238 2535.15 21.5016C2536.49 20.8793 2537.38 20.1459 2537.84 19.3014C2538.24 18.5013 2538.44 16.1678 2538.44 12.2897C2538.44 9.25616 2538.26 5.4003 2537.91 0.733261L2556.42 0.811045C2556.32 2.20004 2556.27 3.30013 2556.27 4.08908C2556.07 8.16718 2555.87 11.223 2555.67 13.2676L2561.19 13.0453C2560.45 8.86724 2559.87 4.74469 2559.48 0.666589L2577.76 0.666589L2577.98 3.72239L2591.18 0.144326C2595.56 3.67794 2598.6 6.73374 2600.29 9.32283L2590.81 11.8564L2600.29 11.4786V25.9464L2588.95 26.3909C2592.33 28.1354 2596.16 29.4022 2600.44 30.1912C2601.09 35.0138 2601.51 38.3251 2601.71 40.1142L2601.7 40.1253ZM2579.09 12.3008L2586.03 12.0786C2584.18 9.54507 2581.53 6.91153 2578.05 4.16687C2578.25 6.80041 2578.59 9.51173 2579.09 12.3008ZM2588.27 34.3026C2587.77 31.469 2587.37 28.8577 2587.08 26.4686L2582.68 26.6909C2584.43 31.5135 2586.46 35.5916 2588.8 38.9252C2588.94 39.1252 2588.77 37.5806 2588.27 34.3026Z" fill="white"/>
<path d="M2979.28 1.31141C2979.28 16.6571 2966.85 29.0914 2951.5 29.0914C2966.85 29.0914 2979.28 41.5257 2979.28 56.8714C2979.28 41.5257 2991.72 29.0914 3007.06 29.0914C2991.72 29.0914 2979.28 16.6571 2979.28 1.31141Z" fill="white"/>
<path d="M2762.08 36.3253C2763.96 37.9143 2766.31 39.2144 2769.12 40.2034C2771.93 41.2035 2774.78 41.6924 2777.67 41.6924C2774.33 47.0595 2771.94 52.3599 2770.51 57.5825C2766.93 56.4936 2763.6 55.0379 2760.51 53.2155C2757.42 51.4043 2754.89 49.2708 2752.9 46.8372C2748.96 51.4154 2742.57 55.0935 2733.73 57.8715C2731.54 50.6153 2729.17 45.3371 2726.64 42.0591C2725.49 47.2262 2724.37 52.6044 2723.28 58.1715L2704.56 55.2601L2707.25 47.3484C2708.69 43.1703 2710.05 39.1366 2711.32 35.2252C2712.58 31.3249 2713.69 27.7246 2714.64 24.4466L2717.85 24.9688C2715.96 21.9797 2713.81 18.8795 2711.39 15.6459C2708.98 12.4123 2706.8 9.72319 2704.87 7.58969L2721.43 0.200211C2723.52 3.28935 2726.15 7.68969 2729.34 13.4013C2731.03 9.52317 2732.05 5.20061 2732.4 0.422451L2748.13 0.422451L2747.61 3.03377L2777.37 3.03377C2777.31 11.1344 2776.98 17.8349 2776.35 23.1354C2775.73 28.4358 2774.48 33.1139 2772.59 37.192C2770.5 36.0475 2768.18 34.9585 2765.61 33.914C2763.04 32.8695 2760.82 32.0694 2758.93 31.5249C2759.13 33.1139 2760.18 34.7029 2762.06 36.3031L2762.08 36.3253ZM2720.91 25.5133L2729.04 26.7801C2728.04 25.5356 2726.81 24.2466 2725.31 22.902L2720.91 25.5133ZM2743.81 18.5017H2758.88V30.9582C2758.88 31.2027 2758.9 31.4027 2758.95 31.5583C2760.54 30.0137 2761.7 28.0691 2762.42 25.7022C2763.14 23.3465 2763.62 20.4463 2763.88 17.0127H2743.81C2741.32 24.2243 2738.14 30.2915 2734.26 35.2141C2732.72 32.225 2731.31 29.8692 2730.01 28.1246C2728.76 33.0028 2727.74 37.2254 2726.95 40.8034C2738.18 39.9589 2743.81 35.8364 2743.81 28.4247V18.5017Z" fill="white"/>
<path d="M2846.96 23.7908V39.1587H2807.72V23.7908H2802.06V42.2145H2850.54V56.3823H2802.06V57.2045L2784.82 57.2045V23.7908H2780.2V10.0675H2784.82V0.377808L2802.06 0.377808V10.0786H2807.72V0L2823.91 0V10.0675H2830.78V0L2846.97 0V10.0675H2852.86V23.7908H2846.96ZM2830.77 26.6243V23.7908H2823.9V26.6243H2830.77Z" fill="white"/>
<path d="M2925.28 40.1253C2925.48 41.9143 2925.58 43.8256 2925.58 45.8702C2925.58 49.8483 2924.81 52.6485 2923.27 54.2597C2921.72 55.871 2919.47 56.6821 2916.48 56.6821C2906.83 56.6821 2899.18 51.3817 2893.5 40.792C2891.51 37.0584 2889.72 32.6136 2888.13 27.4354L2879.03 27.8132C2879.03 23.6351 2878.91 20.5237 2878.65 18.4902C2878.25 20.8237 2877.79 22.7906 2877.23 24.3796V57.3489H2860.3V41.3809C2859.35 41.781 2858.48 42.081 2857.68 42.281C2857.34 39.003 2857.05 36.5361 2856.83 34.8915C2856.61 33.247 2856.19 31.3579 2855.59 29.2244C2854.99 27.0909 2854.15 24.8241 2853.06 22.435C2855.49 22.435 2857.38 22.1238 2858.73 21.5016C2860.07 20.8793 2860.96 20.1459 2861.42 19.3014C2861.82 18.5013 2862.02 16.1678 2862.02 12.2897C2862.02 9.25616 2861.84 5.4003 2861.5 0.733261L2880 0.811045C2879.9 2.20004 2879.85 3.30013 2879.85 4.08908C2879.65 8.16718 2879.45 11.223 2879.25 13.2676L2884.77 13.0453C2884.03 8.86724 2883.45 4.74469 2883.06 0.666589L2901.34 0.666589L2901.56 3.72239L2914.77 0.144326C2919.14 3.67794 2922.18 6.73374 2923.87 9.32283L2914.39 11.8564L2923.87 11.4786V25.9464L2912.53 26.3909C2915.91 28.1354 2919.74 29.4022 2924.02 30.1912C2924.67 35.0138 2925.09 38.3251 2925.29 40.1142L2925.28 40.1253ZM2902.68 12.3008L2909.61 12.0786C2907.77 9.54507 2905.11 6.91153 2901.63 4.16687C2901.83 6.80041 2902.18 9.51173 2902.68 12.3008ZM2911.85 34.3026C2911.35 31.469 2910.95 28.8577 2910.67 26.4686L2906.27 26.6909C2908.01 31.5135 2910.04 35.5916 2912.38 38.9252C2912.52 39.1252 2912.35 37.5806 2911.85 34.3026Z" fill="white"/>
</svg>
