<svg width="193" height="36" viewBox="0 0 193 36" fill="none" xmlns="http://www.w3.org/2000/svg">
<mask id="path-1-outside-1_1_2142" maskUnits="userSpaceOnUse" x="0" y="0" width="193" height="36" fill="black">
<rect fill="white" width="193" height="36"/>
<path d="M28.7609 19.024C28.8462 19.7067 29.2942 20.3893 30.1049 21.072C30.9155 21.7547 31.9182 22.3093 33.1129 22.736C34.3289 23.1627 35.5555 23.376 36.7929 23.376C35.3635 25.68 34.3395 27.952 33.7209 30.192C32.1849 29.7227 30.7555 29.104 29.4329 28.336C28.1102 27.5467 27.0222 26.6293 26.1689 25.584C24.4835 27.5467 21.7422 29.1253 17.9449 30.32C17.0062 27.2053 15.9929 24.944 14.9049 23.536C14.4142 25.7547 13.9342 28.0587 13.4649 30.448L5.43287 29.2L6.58487 25.808C7.20354 24.016 7.77954 22.288 8.31287 20.624C8.86754 18.9387 9.34754 17.392 9.75287 15.984L11.1289 16.208C10.3182 14.928 9.39021 13.5947 8.34487 12.208C7.32087 10.8213 6.39287 9.66933 5.56087 8.752L12.6649 5.584C13.5609 6.90667 14.6915 8.79467 16.0569 11.248C16.7822 9.584 17.2195 7.728 17.3689 5.68H24.1209L23.8969 6.8H36.6649C36.6435 10.2773 36.4942 13.1573 36.2169 15.44C35.9609 17.7013 35.4275 19.7067 34.6169 21.456C33.7209 20.9653 32.7182 20.496 31.6089 20.048C30.5209 19.6 29.5715 19.2587 28.7609 19.024ZM22.2649 13.424H28.7289V18.768C28.7289 18.8747 28.7395 18.96 28.7609 19.024C29.4435 18.3627 29.9342 17.5307 30.2329 16.528C30.5529 15.504 30.7662 14.256 30.8729 12.784H22.2649C21.1982 15.8773 19.8329 18.48 18.1689 20.592C17.5075 19.312 16.8995 18.2987 16.3449 17.552C15.8115 19.6427 15.3742 21.456 15.0329 22.992C19.8542 22.6293 22.2649 20.8587 22.2649 17.68V13.424ZM12.4409 16.432L15.9289 16.976C15.5022 16.4427 14.9689 15.888 14.3289 15.312L12.4409 16.432ZM66.8409 15.696V22.288H50.0089V15.696H47.5769V23.6H68.3769V29.68H47.5769V30.032H40.1849V15.696H38.2009V9.808H40.1849V5.648H47.5769V9.808H50.0089V5.488H56.9529V9.808H59.8969V5.488H66.8409V9.808H69.3689V15.696H66.8409ZM59.8969 16.912V15.696H56.9529V16.912H59.8969ZM100.217 18.448C100.494 20.5173 100.676 21.936 100.761 22.704C100.846 23.472 100.889 24.2933 100.889 25.168C100.889 26.8747 100.558 28.08 99.8969 28.784C99.2355 29.4667 98.2649 29.808 96.9849 29.808C92.8462 29.808 89.5609 27.536 87.1289 22.992C86.2755 21.392 85.5075 19.4827 84.8249 17.264L80.9209 17.424C80.9209 15.632 80.8675 14.2987 80.7609 13.424C80.5902 14.4267 80.3875 15.2693 80.1529 15.952V30.096H72.8889V23.248C72.4835 23.4187 72.1102 23.5467 71.7689 23.632C71.6195 22.224 71.4915 21.168 71.3849 20.464C71.2995 19.76 71.1289 18.9493 70.8729 18.032C70.6169 17.1147 70.2542 16.144 69.7849 15.12C70.8302 15.12 71.6409 14.992 72.2169 14.736C72.7929 14.4587 73.1769 14.1387 73.3689 13.776C73.5395 13.4347 73.6249 12.432 73.6249 10.768C73.6249 9.46667 73.5502 7.81333 73.4009 5.808L81.3369 5.84C81.2942 6.43733 81.2729 6.90667 81.2729 7.248C81.1875 8.99733 81.1022 10.3093 81.0169 11.184L83.3849 11.088C83.0649 9.296 82.8195 7.52533 82.6489 5.776H90.4889L90.5849 7.088L96.2489 5.552C98.1262 7.06667 99.4275 8.37867 100.153 9.488L96.0889 10.576L100.153 10.416V16.624L95.2889 16.816C96.7395 17.5627 98.3822 18.1067 100.217 18.448ZM90.6169 7.28C90.7022 8.41067 90.8515 9.57333 91.0649 10.768L94.0409 10.672C93.2515 9.584 92.1102 8.45333 90.6169 7.28ZM95.2249 22.192C95.2889 22.2773 95.2142 21.616 95.0009 20.208C94.7875 18.992 94.6169 17.872 94.4889 16.848L92.6009 16.944C93.3475 19.0133 94.2222 20.7627 95.2249 22.192ZM130.585 6.8C130.436 10.4053 130.361 14.2667 130.361 18.384C130.361 22.5227 130.436 26.3947 130.585 30H119.129L111.385 12.528L111.961 30H103.737C103.908 25.8613 103.993 21.9893 103.993 18.384C103.993 14.8 103.908 10.9387 103.737 6.8H115.513L123.289 24.752L122.745 6.8H130.585ZM158.423 12.752H141.015V16.112C142.103 16.1333 143.735 16.144 145.911 16.144C149.666 16.144 153.484 16.08 157.367 15.952V22.224C153.484 22.0747 149.388 22 145.079 22C143.287 22 141.932 22.0107 141.015 22.032V30H133.463C133.634 25.8613 133.719 21.9893 133.719 18.384C133.719 14.7787 133.634 10.9067 133.463 6.768H158.423V12.752ZM187.209 13.488C183.859 13.3813 180.606 13.3173 177.449 13.296V30H169.449V13.296C166.27 13.3173 163.027 13.3813 159.721 13.488V6.768H187.209V13.488Z"/>
</mask>
<path d="M28.7609 19.024C28.8462 19.7067 29.2942 20.3893 30.1049 21.072C30.9155 21.7547 31.9182 22.3093 33.1129 22.736C34.3289 23.1627 35.5555 23.376 36.7929 23.376C35.3635 25.68 34.3395 27.952 33.7209 30.192C32.1849 29.7227 30.7555 29.104 29.4329 28.336C28.1102 27.5467 27.0222 26.6293 26.1689 25.584C24.4835 27.5467 21.7422 29.1253 17.9449 30.32C17.0062 27.2053 15.9929 24.944 14.9049 23.536C14.4142 25.7547 13.9342 28.0587 13.4649 30.448L5.43287 29.2L6.58487 25.808C7.20354 24.016 7.77954 22.288 8.31287 20.624C8.86754 18.9387 9.34754 17.392 9.75287 15.984L11.1289 16.208C10.3182 14.928 9.39021 13.5947 8.34487 12.208C7.32087 10.8213 6.39287 9.66933 5.56087 8.752L12.6649 5.584C13.5609 6.90667 14.6915 8.79467 16.0569 11.248C16.7822 9.584 17.2195 7.728 17.3689 5.68H24.1209L23.8969 6.8H36.6649C36.6435 10.2773 36.4942 13.1573 36.2169 15.44C35.9609 17.7013 35.4275 19.7067 34.6169 21.456C33.7209 20.9653 32.7182 20.496 31.6089 20.048C30.5209 19.6 29.5715 19.2587 28.7609 19.024ZM22.2649 13.424H28.7289V18.768C28.7289 18.8747 28.7395 18.96 28.7609 19.024C29.4435 18.3627 29.9342 17.5307 30.2329 16.528C30.5529 15.504 30.7662 14.256 30.8729 12.784H22.2649C21.1982 15.8773 19.8329 18.48 18.1689 20.592C17.5075 19.312 16.8995 18.2987 16.3449 17.552C15.8115 19.6427 15.3742 21.456 15.0329 22.992C19.8542 22.6293 22.2649 20.8587 22.2649 17.68V13.424ZM12.4409 16.432L15.9289 16.976C15.5022 16.4427 14.9689 15.888 14.3289 15.312L12.4409 16.432ZM66.8409 15.696V22.288H50.0089V15.696H47.5769V23.6H68.3769V29.68H47.5769V30.032H40.1849V15.696H38.2009V9.808H40.1849V5.648H47.5769V9.808H50.0089V5.488H56.9529V9.808H59.8969V5.488H66.8409V9.808H69.3689V15.696H66.8409ZM59.8969 16.912V15.696H56.9529V16.912H59.8969ZM100.217 18.448C100.494 20.5173 100.676 21.936 100.761 22.704C100.846 23.472 100.889 24.2933 100.889 25.168C100.889 26.8747 100.558 28.08 99.8969 28.784C99.2355 29.4667 98.2649 29.808 96.9849 29.808C92.8462 29.808 89.5609 27.536 87.1289 22.992C86.2755 21.392 85.5075 19.4827 84.8249 17.264L80.9209 17.424C80.9209 15.632 80.8675 14.2987 80.7609 13.424C80.5902 14.4267 80.3875 15.2693 80.1529 15.952V30.096H72.8889V23.248C72.4835 23.4187 72.1102 23.5467 71.7689 23.632C71.6195 22.224 71.4915 21.168 71.3849 20.464C71.2995 19.76 71.1289 18.9493 70.8729 18.032C70.6169 17.1147 70.2542 16.144 69.7849 15.12C70.8302 15.12 71.6409 14.992 72.2169 14.736C72.7929 14.4587 73.1769 14.1387 73.3689 13.776C73.5395 13.4347 73.6249 12.432 73.6249 10.768C73.6249 9.46667 73.5502 7.81333 73.4009 5.808L81.3369 5.84C81.2942 6.43733 81.2729 6.90667 81.2729 7.248C81.1875 8.99733 81.1022 10.3093 81.0169 11.184L83.3849 11.088C83.0649 9.296 82.8195 7.52533 82.6489 5.776H90.4889L90.5849 7.088L96.2489 5.552C98.1262 7.06667 99.4275 8.37867 100.153 9.488L96.0889 10.576L100.153 10.416V16.624L95.2889 16.816C96.7395 17.5627 98.3822 18.1067 100.217 18.448ZM90.6169 7.28C90.7022 8.41067 90.8515 9.57333 91.0649 10.768L94.0409 10.672C93.2515 9.584 92.1102 8.45333 90.6169 7.28ZM95.2249 22.192C95.2889 22.2773 95.2142 21.616 95.0009 20.208C94.7875 18.992 94.6169 17.872 94.4889 16.848L92.6009 16.944C93.3475 19.0133 94.2222 20.7627 95.2249 22.192ZM130.585 6.8C130.436 10.4053 130.361 14.2667 130.361 18.384C130.361 22.5227 130.436 26.3947 130.585 30H119.129L111.385 12.528L111.961 30H103.737C103.908 25.8613 103.993 21.9893 103.993 18.384C103.993 14.8 103.908 10.9387 103.737 6.8H115.513L123.289 24.752L122.745 6.8H130.585ZM158.423 12.752H141.015V16.112C142.103 16.1333 143.735 16.144 145.911 16.144C149.666 16.144 153.484 16.08 157.367 15.952V22.224C153.484 22.0747 149.388 22 145.079 22C143.287 22 141.932 22.0107 141.015 22.032V30H133.463C133.634 25.8613 133.719 21.9893 133.719 18.384C133.719 14.7787 133.634 10.9067 133.463 6.768H158.423V12.752ZM187.209 13.488C183.859 13.3813 180.606 13.3173 177.449 13.296V30H169.449V13.296C166.27 13.3173 163.027 13.3813 159.721 13.488V6.768H187.209V13.488Z" fill="#050C9C"/>
<path d="M28.7609 19.024L30.1512 14.2212C28.5357 13.7535 26.7933 14.1294 25.5143 15.2214C24.2352 16.3134 23.5909 17.9753 23.7995 19.6442L28.7609 19.024ZM30.1049 21.072L33.3256 17.2474L33.3256 17.2474L30.1049 21.072ZM33.1129 22.736L31.4312 27.4447C31.4399 27.4478 31.4487 27.4509 31.4574 27.454L33.1129 22.736ZM36.7929 23.376L41.0417 26.0118C41.9983 24.4698 42.0444 22.5306 41.162 20.9449C40.2797 19.3592 38.6075 18.376 36.7929 18.376V23.376ZM33.7209 30.192L32.2598 34.9738C33.5504 35.3681 34.9457 35.224 36.1285 34.5742C37.3113 33.9243 38.1811 32.824 38.5404 31.5231L33.7209 30.192ZM29.4329 28.336L26.8706 32.6296C26.8877 32.6398 26.9049 32.6499 26.9222 32.6599L29.4329 28.336ZM26.1689 25.584L30.0422 22.4221C29.1064 21.2758 27.7108 20.6028 26.2311 20.5844C24.7514 20.566 23.3396 21.2039 22.3755 22.3266L26.1689 25.584ZM17.9449 30.32L13.1575 31.7628C13.5432 33.0425 14.4252 34.1145 15.6066 34.7395C16.788 35.3646 18.1704 35.4906 19.4454 35.0895L17.9449 30.32ZM14.9049 23.536L18.8613 20.4788C17.6747 18.9432 15.7069 18.2329 13.8131 18.6566C11.9194 19.0804 10.4419 20.5615 10.0228 22.4563L14.9049 23.536ZM13.4649 30.448L12.6972 35.3887C15.3494 35.8008 17.8538 34.0454 18.3711 31.4117L13.4649 30.448ZM5.43287 29.2L0.698464 27.5921C0.223536 28.9905 0.391114 30.5273 1.15626 31.7905C1.92141 33.0537 3.20586 33.914 4.66519 34.1407L5.43287 29.2ZM6.58487 25.808L1.85861 24.1763C1.85587 24.1842 1.85316 24.1922 1.85046 24.2001L6.58487 25.808ZM8.31287 20.624L3.56348 19.0609C3.55942 19.0732 3.55542 19.0856 3.55146 19.0979L8.31287 20.624ZM9.75287 15.984L10.5562 11.049C8.05718 10.6421 5.64846 12.1676 4.94801 14.6008L9.75287 15.984ZM11.1289 16.208L10.3255 21.143C12.2682 21.4593 14.2158 20.6063 15.3007 18.964C16.3857 17.3217 16.4061 15.1956 15.353 13.5327L11.1289 16.208ZM8.34487 12.208L4.32271 15.1782C4.33249 15.1915 4.34234 15.2047 4.35225 15.2178L8.34487 12.208ZM5.56087 8.752L3.52446 4.18549C2.06026 4.83844 0.997968 6.1539 0.667953 7.72275C0.337939 9.29161 0.780232 10.9236 1.85728 12.1111L5.56087 8.752ZM12.6649 5.584L16.8045 2.77976C15.4451 0.773027 12.8421 0.0303063 10.6285 1.01749L12.6649 5.584ZM16.0569 11.248L11.6879 13.6794C12.6125 15.3409 14.3995 16.3341 16.2987 16.2421C18.1979 16.1502 19.8806 14.989 20.6404 13.2459L16.0569 11.248ZM17.3689 5.68V0.679998C14.7485 0.679998 12.5727 2.70297 12.3821 5.31638L17.3689 5.68ZM24.1209 5.68L29.0238 6.66057C29.3176 5.1917 28.9373 3.66849 27.9876 2.51005C27.0379 1.35161 25.6188 0.679998 24.1209 0.679998V5.68ZM23.8969 6.8L18.994 5.81942C18.7002 7.2883 19.0805 8.81151 20.0302 9.96995C20.9799 11.1284 22.3989 11.8 23.8969 11.8V6.8ZM36.6649 6.8L41.6648 6.83067C41.6729 5.4993 41.1498 4.21965 40.2112 3.27533C39.2727 2.331 37.9963 1.8 36.6649 1.8V6.8ZM36.2169 15.44L31.2534 14.837C31.2517 14.8505 31.2501 14.864 31.2486 14.8776L36.2169 15.44ZM34.6169 21.456L32.2153 25.8415C33.4294 26.5064 34.8649 26.6382 36.1798 26.2054C37.4947 25.7727 38.5714 24.8143 39.1534 23.5583L34.6169 21.456ZM31.6089 20.048L29.7051 24.6714C29.7156 24.6757 29.7261 24.68 29.7366 24.6842L31.6089 20.048ZM22.2649 13.424V8.424C19.5034 8.424 17.2649 10.6626 17.2649 13.424H22.2649ZM28.7289 13.424H33.7289C33.7289 10.6626 31.4903 8.424 28.7289 8.424V13.424ZM28.7609 19.024L24.0175 20.6052C24.561 22.2358 25.904 23.4728 27.5736 23.881C29.2432 24.2891 31.0054 23.8111 32.2398 22.6152L28.7609 19.024ZM30.2329 16.528L25.4605 15.0366C25.4538 15.0579 25.4473 15.0792 25.4409 15.1006L30.2329 16.528ZM30.8729 12.784L35.8598 13.1454C35.9602 11.7601 35.4799 10.3956 34.5339 9.37862C33.588 8.36168 32.2617 7.784 30.8729 7.784V12.784ZM22.2649 12.784V7.784C20.1317 7.784 18.2334 9.13738 17.538 11.154L22.2649 12.784ZM18.1689 20.592L13.7267 22.8871C14.5071 24.3974 16.0013 25.4078 17.6936 25.5694C19.3858 25.731 21.0443 25.0217 22.0963 23.6864L18.1689 20.592ZM16.3449 17.552L20.3586 14.5704C19.2085 13.0221 17.2704 12.2734 15.3782 12.6463C13.4859 13.0192 11.9768 14.4472 11.5 16.3161L16.3449 17.552ZM15.0329 22.992L10.1519 21.9073C9.80863 23.4522 10.217 25.0684 11.2528 26.2648C12.2887 27.4612 13.8298 28.0966 15.4079 27.9779L15.0329 22.992ZM12.4409 16.432L9.88986 12.1317C8.07573 13.2079 7.13209 15.3068 7.53118 17.378C7.93027 19.4492 9.58625 21.0472 11.6704 21.3723L12.4409 16.432ZM15.9289 16.976L15.1584 21.9163C17.1962 22.2341 19.2201 21.268 20.2545 19.4837C21.289 17.6994 21.1216 15.463 19.8332 13.8525L15.9289 16.976ZM14.3289 15.312L17.6737 11.5955C16.0477 10.1322 13.6593 9.89565 11.7779 11.0117L14.3289 15.312ZM28.7609 19.024L23.7995 19.6442C24.1069 22.1033 25.6136 23.8266 26.8842 24.8966L30.1049 21.072L33.3256 17.2474C33.1868 17.1306 33.2339 17.1413 33.3411 17.3047C33.4586 17.4837 33.654 17.8581 33.7223 18.4038L28.7609 19.024ZM30.1049 21.072L26.8842 24.8966C28.231 26.0307 29.7827 26.8559 31.4312 27.4447L33.1129 22.736L34.7946 18.0273C34.0537 17.7627 33.6 17.4786 33.3256 17.2474L30.1049 21.072ZM33.1129 22.736L31.4574 27.454C33.1831 28.0595 34.9686 28.376 36.7929 28.376V23.376V18.376C36.1425 18.376 35.4747 18.2658 34.7683 18.018L33.1129 22.736ZM36.7929 23.376L32.5441 20.7402C30.904 23.3838 29.6661 26.0919 28.9013 28.8609L33.7209 30.192L38.5404 31.5231C39.013 29.8121 39.8231 27.9762 41.0417 26.0118L36.7929 23.376ZM33.7209 30.192L35.182 25.4102C33.9939 25.0472 32.9189 24.5784 31.9436 24.0121L29.4329 28.336L26.9222 32.6599C28.5922 33.6296 30.3758 34.3981 32.2598 34.9738L33.7209 30.192ZM29.4329 28.336L31.9952 24.0424C31.1023 23.5096 30.4796 22.9579 30.0422 22.4221L26.1689 25.584L22.2956 28.7459C23.5648 30.3007 25.1182 31.5838 26.8706 32.6296L29.4329 28.336ZM26.1689 25.584L22.3755 22.3266C21.5426 23.2966 19.7938 24.4967 16.4443 25.5505L17.9449 30.32L19.4454 35.0895C23.6906 33.754 27.4244 31.7968 29.9622 28.8414L26.1689 25.584ZM17.9449 30.32L22.7322 28.8772C21.7385 25.5799 20.5135 22.617 18.8613 20.4788L14.9049 23.536L10.9484 26.5932C11.4722 27.271 12.2739 28.8307 13.1575 31.7628L17.9449 30.32ZM14.9049 23.536L10.0228 22.4563C9.52306 24.7162 9.03504 27.0589 8.55863 29.4843L13.4649 30.448L18.3711 31.4117C18.8334 29.0584 19.3053 26.7932 19.7869 24.6157L14.9049 23.536ZM13.4649 30.448L14.2326 25.5073L6.20055 24.2593L5.43287 29.2L4.66519 34.1407L12.6972 35.3887L13.4649 30.448ZM5.43287 29.2L10.1673 30.8079L11.3193 27.4159L6.58487 25.808L1.85046 24.2001L0.698464 27.5921L5.43287 29.2ZM6.58487 25.808L11.3111 27.4397C11.9409 25.6155 12.5287 23.8522 13.0743 22.1501L8.31287 20.624L3.55146 19.0979C3.03035 20.7238 2.46617 22.4165 1.85861 24.1763L6.58487 25.808ZM8.31287 20.624L13.0623 22.1871C13.6326 20.4541 14.1319 18.8465 14.5577 17.3672L9.75287 15.984L4.94801 14.6008C4.56319 15.9375 4.10245 17.4233 3.56348 19.0609L8.31287 20.624ZM9.75287 15.984L8.94949 20.919L10.3255 21.143L11.1289 16.208L11.9323 11.273L10.5562 11.049L9.75287 15.984ZM11.1289 16.208L15.353 13.5327C14.4602 12.123 13.453 10.6779 12.3375 9.19818L8.34487 12.208L4.35225 15.2178C5.32744 16.5114 6.17626 17.733 6.90478 18.8833L11.1289 16.208ZM8.34487 12.208L12.367 9.23778C11.2788 7.76415 10.2431 6.47189 9.26447 5.39292L5.56087 8.752L1.85728 12.1111C2.54268 12.8668 3.36293 13.8785 4.32271 15.1782L8.34487 12.208ZM5.56087 8.752L7.59729 13.3185L14.7013 10.1505L12.6649 5.584L10.6285 1.01749L3.52446 4.18549L5.56087 8.752ZM12.6649 5.584L8.52528 8.38824C9.30055 9.53269 10.3491 11.2739 11.6879 13.6794L16.0569 11.248L20.4259 8.81656C19.034 6.31548 17.8212 4.28064 16.8045 2.77976L12.6649 5.584ZM16.0569 11.248L20.6404 13.2459C21.619 11.0007 22.1705 8.58215 22.3556 6.04362L17.3689 5.68L12.3821 5.31638C12.2685 6.87385 11.9454 8.16732 11.4734 9.25007L16.0569 11.248ZM17.3689 5.68V10.68H24.1209V5.68V0.679998H17.3689V5.68ZM24.1209 5.68L19.218 4.69942L18.994 5.81942L23.8969 6.8L28.7998 7.78057L29.0238 6.66057L24.1209 5.68ZM23.8969 6.8V11.8H36.6649V6.8V1.8H23.8969V6.8ZM36.6649 6.8L31.665 6.76933C31.6443 10.1415 31.4992 12.814 31.2534 14.837L36.2169 15.44L41.1804 16.043C41.4893 13.5007 41.6428 10.4131 41.6648 6.83067L36.6649 6.8ZM36.2169 15.44L31.2486 14.8776C31.0424 16.6994 30.6289 18.1699 30.0803 19.3537L34.6169 21.456L39.1534 23.5583C40.2262 21.2435 40.8794 18.7033 41.1851 16.0024L36.2169 15.44ZM34.6169 21.456L37.0184 17.0705C35.9251 16.4718 34.7419 15.9209 33.4812 15.4118L31.6089 20.048L29.7366 24.6842C30.6945 25.0711 31.5167 25.4589 32.2153 25.8415L34.6169 21.456ZM31.6089 20.048L33.5126 15.4246C32.3168 14.9322 31.1889 14.5216 30.1512 14.2212L28.7609 19.024L27.3706 23.8268C27.9542 23.9958 28.725 24.2678 29.7051 24.6714L31.6089 20.048ZM22.2649 13.424V18.424H28.7289V13.424V8.424H22.2649V13.424ZM28.7289 13.424H23.7289V18.768H28.7289H33.7289V13.424H28.7289ZM28.7289 18.768H23.7289C23.7289 19.1377 23.757 19.8237 24.0175 20.6052L28.7609 19.024L33.5043 17.4428C33.6215 17.7946 33.6733 18.092 33.6983 18.2918C33.7239 18.4968 33.7289 18.661 33.7289 18.768H28.7289ZM28.7609 19.024L32.2398 22.6152C33.5991 21.2984 34.5066 19.6952 35.0248 17.9554L30.2329 16.528L25.4409 15.1006C25.3618 15.3662 25.288 15.4269 25.2819 15.4328L28.7609 19.024ZM30.2329 16.528L35.0053 18.0194C35.4738 16.5202 35.7349 14.8688 35.8598 13.1454L30.8729 12.784L25.886 12.4226C25.7975 13.6432 25.632 14.4878 25.4605 15.0366L30.2329 16.528ZM30.8729 12.784V7.784H22.2649V12.784V17.784H30.8729V12.784ZM22.2649 12.784L17.538 11.154C16.6156 13.8289 15.4929 15.9092 14.2414 17.4976L18.1689 20.592L22.0963 23.6864C24.1728 21.0508 25.7808 17.9257 26.9917 14.414L22.2649 12.784ZM18.1689 20.592L22.611 18.2969C21.8851 16.8919 21.1366 15.6177 20.3586 14.5704L16.3449 17.552L12.3312 20.5336C12.6625 20.9796 13.13 21.7321 13.7267 22.8871L18.1689 20.592ZM16.3449 17.552L11.5 16.3161C10.9582 18.44 10.5078 20.3061 10.1519 21.9073L15.0329 22.992L19.9138 24.0767C20.2406 22.6059 20.6649 20.8453 21.1897 18.7879L16.3449 17.552ZM15.0329 22.992L15.4079 27.9779C18.2318 27.7655 21.124 27.1058 23.4168 25.4218C25.996 23.5273 27.2649 20.7439 27.2649 17.68H22.2649H17.2649C17.2649 17.8334 17.239 17.7722 17.3177 17.6106C17.4016 17.4384 17.5042 17.357 17.497 17.3622C17.4648 17.3859 17.2691 17.5167 16.7822 17.6603C16.2964 17.8036 15.6042 17.9349 14.6578 18.0061L15.0329 22.992ZM22.2649 17.68H27.2649V13.424H22.2649H17.2649V17.68H22.2649ZM12.4409 16.432L11.6704 21.3723L15.1584 21.9163L15.9289 16.976L16.6994 12.0357L13.2114 11.4917L12.4409 16.432ZM15.9289 16.976L19.8332 13.8525C19.1994 13.0602 18.4664 12.309 17.6737 11.5955L14.3289 15.312L10.984 19.0285C11.4713 19.467 11.8051 19.8251 12.0245 20.0995L15.9289 16.976ZM14.3289 15.312L11.7779 11.0117L9.88986 12.1317L12.4409 16.432L14.9919 20.7323L16.8799 19.6123L14.3289 15.312ZM66.8409 15.696V10.696C64.0794 10.696 61.8409 12.9346 61.8409 15.696H66.8409ZM66.8409 22.288V27.288C69.6023 27.288 71.8409 25.0494 71.8409 22.288H66.8409ZM50.0089 22.288H45.0089C45.0089 25.0494 47.2474 27.288 50.0089 27.288V22.288ZM50.0089 15.696H55.0089C55.0089 12.9346 52.7703 10.696 50.0089 10.696V15.696ZM47.5769 15.696V10.696C44.8154 10.696 42.5769 12.9346 42.5769 15.696H47.5769ZM47.5769 23.6H42.5769C42.5769 26.3614 44.8154 28.6 47.5769 28.6V23.6ZM68.3769 23.6H73.3769C73.3769 20.8386 71.1383 18.6 68.3769 18.6V23.6ZM68.3769 29.68V34.68C71.1383 34.68 73.3769 32.4414 73.3769 29.68H68.3769ZM47.5769 29.68V24.68C44.8154 24.68 42.5769 26.9186 42.5769 29.68H47.5769ZM47.5769 30.032V35.032C50.3383 35.032 52.5769 32.7934 52.5769 30.032H47.5769ZM40.1849 30.032H35.1849C35.1849 32.7934 37.4234 35.032 40.1849 35.032V30.032ZM40.1849 15.696H45.1849C45.1849 12.9346 42.9463 10.696 40.1849 10.696V15.696ZM38.2009 15.696H33.2009C33.2009 18.4574 35.4394 20.696 38.2009 20.696V15.696ZM38.2009 9.808V4.808C35.4394 4.808 33.2009 7.04657 33.2009 9.808H38.2009ZM40.1849 9.808V14.808C42.9463 14.808 45.1849 12.5694 45.1849 9.808H40.1849ZM40.1849 5.648V0.647999C37.4234 0.647999 35.1849 2.88657 35.1849 5.648H40.1849ZM47.5769 5.648H52.5769C52.5769 2.88657 50.3383 0.647999 47.5769 0.647999V5.648ZM47.5769 9.808H42.5769C42.5769 12.5694 44.8154 14.808 47.5769 14.808V9.808ZM50.0089 9.808V14.808C52.7703 14.808 55.0089 12.5694 55.0089 9.808H50.0089ZM50.0089 5.488V0.487999C47.2474 0.487999 45.0089 2.72657 45.0089 5.488H50.0089ZM56.9529 5.488H61.9529C61.9529 2.72657 59.7143 0.487999 56.9529 0.487999V5.488ZM56.9529 9.808H51.9529C51.9529 12.5694 54.1914 14.808 56.9529 14.808V9.808ZM59.8969 9.808V14.808C62.6583 14.808 64.8969 12.5694 64.8969 9.808H59.8969ZM59.8969 5.488V0.487999C57.1354 0.487999 54.8969 2.72657 54.8969 5.488H59.8969ZM66.8409 5.488H71.8409C71.8409 2.72657 69.6023 0.487999 66.8409 0.487999V5.488ZM66.8409 9.808H61.8409C61.8409 12.5694 64.0794 14.808 66.8409 14.808V9.808ZM69.3689 9.808H74.3689C74.3689 7.04657 72.1303 4.808 69.3689 4.808V9.808ZM69.3689 15.696V20.696C72.1303 20.696 74.3689 18.4574 74.3689 15.696H69.3689ZM59.8969 16.912V21.912C62.6583 21.912 64.8969 19.6734 64.8969 16.912H59.8969ZM59.8969 15.696H64.8969C64.8969 12.9346 62.6583 10.696 59.8969 10.696V15.696ZM56.9529 15.696V10.696C54.1914 10.696 51.9529 12.9346 51.9529 15.696H56.9529ZM56.9529 16.912H51.9529C51.9529 19.6734 54.1914 21.912 56.9529 21.912V16.912ZM66.8409 15.696H61.8409V22.288H66.8409H71.8409V15.696H66.8409ZM66.8409 22.288V17.288H50.0089V22.288V27.288H66.8409V22.288ZM50.0089 22.288H55.0089V15.696H50.0089H45.0089V22.288H50.0089ZM50.0089 15.696V10.696H47.5769V15.696V20.696H50.0089V15.696ZM47.5769 15.696H42.5769V23.6H47.5769H52.5769V15.696H47.5769ZM47.5769 23.6V28.6H68.3769V23.6V18.6H47.5769V23.6ZM68.3769 23.6H63.3769V29.68H68.3769H73.3769V23.6H68.3769ZM68.3769 29.68V24.68H47.5769V29.68V34.68H68.3769V29.68ZM47.5769 29.68H42.5769V30.032H47.5769H52.5769V29.68H47.5769ZM47.5769 30.032V25.032H40.1849V30.032V35.032H47.5769V30.032ZM40.1849 30.032H45.1849V15.696H40.1849H35.1849V30.032H40.1849ZM40.1849 15.696V10.696H38.2009V15.696V20.696H40.1849V15.696ZM38.2009 15.696H43.2009V9.808H38.2009H33.2009V15.696H38.2009ZM38.2009 9.808V14.808H40.1849V9.808V4.808H38.2009V9.808ZM40.1849 9.808H45.1849V5.648H40.1849H35.1849V9.808H40.1849ZM40.1849 5.648V10.648H47.5769V5.648V0.647999H40.1849V5.648ZM47.5769 5.648H42.5769V9.808H47.5769H52.5769V5.648H47.5769ZM47.5769 9.808V14.808H50.0089V9.808V4.808H47.5769V9.808ZM50.0089 9.808H55.0089V5.488H50.0089H45.0089V9.808H50.0089ZM50.0089 5.488V10.488H56.9529V5.488V0.487999H50.0089V5.488ZM56.9529 5.488H51.9529V9.808H56.9529H61.9529V5.488H56.9529ZM56.9529 9.808V14.808H59.8969V9.808V4.808H56.9529V9.808ZM59.8969 9.808H64.8969V5.488H59.8969H54.8969V9.808H59.8969ZM59.8969 5.488V10.488H66.8409V5.488V0.487999H59.8969V5.488ZM66.8409 5.488H61.8409V9.808H66.8409H71.8409V5.488H66.8409ZM66.8409 9.808V14.808H69.3689V9.808V4.808H66.8409V9.808ZM69.3689 9.808H64.3689V15.696H69.3689H74.3689V9.808H69.3689ZM69.3689 15.696V10.696H66.8409V15.696V20.696H69.3689V15.696ZM59.8969 16.912H64.8969V15.696H59.8969H54.8969V16.912H59.8969ZM59.8969 15.696V10.696H56.9529V15.696V20.696H59.8969V15.696ZM56.9529 15.696H51.9529V16.912H56.9529H61.9529V15.696H56.9529ZM56.9529 16.912V21.912H59.8969V16.912V11.912H56.9529V16.912ZM100.217 18.448L105.173 17.7838C104.886 15.6424 103.256 13.9275 101.131 13.5323L100.217 18.448ZM100.761 22.704L95.7915 23.2562V23.2562L100.761 22.704ZM99.8969 28.784L103.488 32.263C103.506 32.2446 103.524 32.226 103.541 32.2074L99.8969 28.784ZM87.1289 22.992L82.7171 25.3449L82.7206 25.3514L87.1289 22.992ZM84.8249 17.264L89.6038 15.7936C88.9359 13.623 86.8892 12.1752 84.6201 12.2682L84.8249 17.264ZM80.9209 17.424H75.9209C75.9209 18.7856 76.4762 20.0883 77.4585 21.0312C78.4408 21.9741 79.7652 22.4756 81.1256 22.4198L80.9209 17.424ZM80.7609 13.424L85.7241 12.8187C85.4236 10.3546 83.3607 8.48403 80.879 8.4254C78.3973 8.36676 76.2483 10.1378 75.8318 12.585L80.7609 13.424ZM80.1529 15.952L75.4244 14.3266C75.2446 14.8497 75.1529 15.3989 75.1529 15.952H80.1529ZM80.1529 30.096V35.096C82.9143 35.096 85.1529 32.8574 85.1529 30.096H80.1529ZM72.8889 30.096H67.8889C67.8889 32.8574 70.1274 35.096 72.8889 35.096V30.096ZM72.8889 23.248H77.8889C77.8889 21.5729 77.0501 20.0091 75.6546 19.0826C74.2591 18.156 72.4924 17.9898 70.9486 18.6398L72.8889 23.248ZM71.7689 23.632L66.7968 24.1593C66.9494 25.5985 67.7181 26.9009 68.9042 27.73C70.0904 28.5592 71.5776 28.8337 72.9815 28.4827L71.7689 23.632ZM71.3849 20.464L66.4212 21.0657C66.4272 21.1149 66.4339 21.164 66.4413 21.213L71.3849 20.464ZM70.8729 18.032L66.0569 19.376V19.376L70.8729 18.032ZM69.7849 15.12V10.12C68.0821 10.12 66.4964 10.9866 65.5768 12.4197C64.6572 13.8528 64.5301 15.6553 65.2395 17.2033L69.7849 15.12ZM72.2169 14.736L74.2476 19.3051C74.294 19.2844 74.3401 19.2631 74.3859 19.241L72.2169 14.736ZM73.3689 13.776L77.7878 16.1154C77.8059 16.0812 77.8237 16.0467 77.841 16.0121L73.3689 13.776ZM73.4009 5.808L73.421 0.808039C72.0269 0.802418 70.6938 1.37908 69.7433 2.39889C68.7927 3.41871 68.3111 4.78906 68.4147 6.17931L73.4009 5.808ZM81.3369 5.84L86.3242 6.19623C86.4228 4.81529 85.9445 3.45526 85.0031 2.44012C84.0617 1.42499 82.7415 0.845621 81.357 0.840039L81.3369 5.84ZM81.2729 7.248L86.2669 7.49161C86.2709 7.41047 86.2729 7.32924 86.2729 7.248H81.2729ZM81.0169 11.184L76.0405 10.6985C75.9001 12.1375 76.3895 13.5669 77.3825 14.6178C78.3754 15.6688 79.7747 16.2385 81.2194 16.1799L81.0169 11.184ZM83.3849 11.088L83.5874 16.0839C85.0307 16.0254 86.3782 15.3455 87.2828 14.2194C88.1875 13.0933 88.5609 11.631 88.307 10.209L83.3849 11.088ZM82.6489 5.776V0.775999C81.2383 0.775999 79.8934 1.37179 78.9457 2.4165C77.9979 3.4612 77.5355 4.85762 77.6725 6.2615L82.6489 5.776ZM90.4889 5.776L95.4755 5.41112C95.2844 2.79825 93.1087 0.775999 90.4889 0.775999V5.776ZM90.5849 7.088L85.5982 7.45288C85.7072 8.94195 86.4759 10.3044 87.6941 11.1676C88.9123 12.0308 90.4525 12.3045 91.8935 11.9137L90.5849 7.088ZM96.2489 5.552L99.3885 1.66063C98.1412 0.654265 96.487 0.306821 94.9402 0.726297L96.2489 5.552ZM100.153 9.488L101.446 14.3179C102.995 13.9032 104.251 12.7709 104.823 11.2731C105.396 9.77528 105.215 8.0938 104.338 6.75175L100.153 9.488ZM96.0889 10.576L94.7958 5.74609C92.3356 6.40473 90.7636 8.8074 91.1454 11.3255C91.5271 13.8436 93.7407 15.6723 96.2856 15.5721L96.0889 10.576ZM100.153 10.416H105.153C105.153 9.05579 104.599 7.75429 103.618 6.81159C102.638 5.86889 101.315 5.36636 99.9562 5.41987L100.153 10.416ZM100.153 16.624L100.35 21.6201C103.033 21.5142 105.153 19.3087 105.153 16.624H100.153ZM95.2889 16.816L95.0917 11.8199C92.8222 11.9095 90.8982 13.5174 90.4072 15.7349C89.9161 17.9524 90.9812 20.2223 93.0007 21.2617L95.2889 16.816ZM90.6169 7.28L93.706 3.34841C92.1473 2.12373 90.0123 1.93549 88.2634 2.86852C86.5145 3.80155 85.4819 5.67966 85.6311 7.65629L90.6169 7.28ZM91.0649 10.768L86.1427 11.647C86.5793 14.0917 88.744 15.8455 91.2261 15.7654L91.0649 10.768ZM94.0409 10.672L94.2021 15.6694C96.0517 15.6097 97.7171 14.5333 98.5312 12.8714C99.3452 11.2094 99.1747 9.23378 98.088 7.73586L94.0409 10.672ZM95.2249 22.192L91.1316 25.0634C91.162 25.1068 91.1931 25.1496 91.2249 25.192L95.2249 22.192ZM95.0009 20.208L99.9445 19.459C99.9386 19.4206 99.9324 19.3822 99.9257 19.344L95.0009 20.208ZM94.4889 16.848L99.4503 16.2278C99.1254 13.6292 96.8505 11.7215 94.235 11.8545L94.4889 16.848ZM92.6009 16.944L92.347 11.9505C90.7649 12.0309 89.3146 12.8562 88.4374 14.1753C87.5603 15.4943 87.36 17.151 87.8977 18.641L92.6009 16.944ZM100.217 18.448L95.2612 19.1122C95.5392 21.1864 95.7132 22.552 95.7915 23.2562L100.761 22.704L105.73 22.1518C105.638 21.32 105.449 19.8483 105.173 17.7838L100.217 18.448ZM100.761 22.704L95.7915 23.2562C95.854 23.8188 95.8889 24.4542 95.8889 25.168H100.889H105.889C105.889 24.1324 105.838 23.1252 105.73 22.1518L100.761 22.704ZM100.889 25.168H95.8889C95.8889 25.436 95.8757 25.6406 95.8588 25.7899C95.8417 25.9401 95.823 26.0147 95.819 26.0292C95.8078 26.0702 95.8856 25.7513 96.2526 25.3606L99.8969 28.784L103.541 32.2074C105.535 30.0848 105.889 27.2562 105.889 25.168H100.889ZM99.8969 28.784L96.3057 25.305C96.5582 25.0444 96.8297 24.9 97.0142 24.8351C97.1738 24.779 97.1923 24.808 96.9849 24.808V29.808V34.808C99.133 34.808 101.594 34.2186 103.488 32.263L99.8969 28.784ZM96.9849 29.808V24.808C95.1699 24.808 93.3516 24.0227 91.5372 20.6326L87.1289 22.992L82.7206 25.3514C85.7701 31.0493 90.5225 34.808 96.9849 34.808V29.808ZM87.1289 22.992L91.5406 20.6391C90.8725 19.3863 90.2172 17.7872 89.6038 15.7936L84.8249 17.264L80.046 18.7344C80.7979 21.1782 81.6786 23.3977 82.7171 25.3449L87.1289 22.992ZM84.8249 17.264L84.6201 12.2682L80.7161 12.4282L80.9209 17.424L81.1256 22.4198L85.0296 22.2598L84.8249 17.264ZM80.9209 17.424H85.9209C85.9209 15.5915 85.8691 14.0081 85.7241 12.8187L80.7609 13.424L75.7976 14.0293C75.8659 14.5893 75.9209 15.6725 75.9209 17.424H80.9209ZM80.7609 13.424L75.8318 12.585C75.6897 13.4194 75.5435 13.9802 75.4244 14.3266L80.1529 15.952L84.8813 17.5774C85.2316 16.5585 85.4907 15.4339 85.69 14.263L80.7609 13.424ZM80.1529 15.952H75.1529V30.096H80.1529H85.1529V15.952H80.1529ZM80.1529 30.096V25.096H72.8889V30.096V35.096H80.1529V30.096ZM72.8889 30.096H77.8889V23.248H72.8889H67.8889V30.096H72.8889ZM72.8889 23.248L70.9486 18.6398C70.7236 18.7345 70.5968 18.7711 70.5562 18.7813L71.7689 23.632L72.9815 28.4827C73.6236 28.3222 74.2434 28.1028 74.8292 27.8562L72.8889 23.248ZM71.7689 23.632L76.741 23.1047C76.5899 21.6797 76.4524 20.5333 76.3284 19.715L71.3849 20.464L66.4413 21.213C66.5306 21.8027 66.6492 22.7683 66.7968 24.1593L71.7689 23.632ZM71.3849 20.464L76.3485 19.8623C76.2245 18.8392 75.9913 17.7719 75.6889 16.688L70.8729 18.032L66.0569 19.376C66.2664 20.1268 66.3746 20.6808 66.4212 21.0657L71.3849 20.464ZM70.8729 18.032L75.6889 16.688C75.3508 15.4767 74.8898 14.2578 74.3302 13.0367L69.7849 15.12L65.2395 17.2033C65.6186 18.0302 65.8829 18.7526 66.0569 19.376L70.8729 18.032ZM69.7849 15.12V20.12C71.1278 20.12 72.7458 19.9725 74.2476 19.3051L72.2169 14.736L70.1862 10.1669C70.2967 10.1178 70.3745 10.0942 70.4065 10.0853C70.4388 10.0764 70.4382 10.0787 70.3971 10.0852C70.3083 10.0992 70.1134 10.12 69.7849 10.12V15.12ZM72.2169 14.736L74.3859 19.241C75.4225 18.7419 76.8871 17.8169 77.7878 16.1154L73.3689 13.776L68.9499 11.4366C69.2169 10.9322 69.5342 10.615 69.7359 10.4469C69.9326 10.283 70.0631 10.2236 70.0478 10.231L72.2169 14.736ZM73.3689 13.776L77.841 16.0121C78.1908 15.3125 78.3311 14.6545 78.3926 14.3316C78.4679 13.9359 78.513 13.5425 78.5429 13.192C78.6027 12.4887 78.6249 11.6631 78.6249 10.768H73.6249H68.6249C68.6249 11.5369 68.6044 12.0447 68.5789 12.344C68.566 12.4949 68.5578 12.5201 68.5692 12.4604C68.5755 12.4275 68.594 12.3354 68.6329 12.2034C68.6684 12.0828 68.7467 11.84 68.8967 11.5399L73.3689 13.776ZM73.6249 10.768H78.6249C78.6249 9.29532 78.5412 7.50691 78.3871 5.43669L73.4009 5.808L68.4147 6.17931C68.5592 8.11975 68.6249 9.63801 68.6249 10.768H73.6249ZM73.4009 5.808L73.3807 10.808L81.3167 10.84L81.3369 5.84L81.357 0.840039L73.421 0.808039L73.4009 5.808ZM81.3369 5.84L76.3496 5.48376C76.3037 6.12574 76.2729 6.73156 76.2729 7.248H81.2729H86.2729C86.2729 7.08177 86.2847 6.74892 86.3242 6.19623L81.3369 5.84ZM81.2729 7.248L76.2788 7.00439C76.1944 8.73546 76.1136 9.94886 76.0405 10.6985L81.0169 11.184L85.9932 11.6695C86.0908 10.6698 86.1807 9.25921 86.2669 7.49161L81.2729 7.248ZM81.0169 11.184L81.2194 16.1799L83.5874 16.0839L83.3849 11.088L83.1823 6.0921L80.8143 6.1881L81.0169 11.184ZM83.3849 11.088L88.307 10.209C88.0095 8.54281 87.7826 6.90343 87.6252 5.2905L82.6489 5.776L77.6725 6.2615C77.8565 8.14724 78.1203 10.0492 78.4627 11.967L83.3849 11.088ZM82.6489 5.776V10.776H90.4889V5.776V0.775999H82.6489V5.776ZM90.4889 5.776L85.5022 6.14088L85.5982 7.45288L90.5849 7.088L95.5715 6.72312L95.4755 5.41112L90.4889 5.776ZM90.5849 7.088L91.8935 11.9137L97.5575 10.3777L96.2489 5.552L94.9402 0.726297L89.2762 2.2623L90.5849 7.088ZM96.2489 5.552L93.1092 9.44337C94.8555 10.8523 95.6732 11.7734 95.968 12.2242L100.153 9.488L104.338 6.75175C103.182 4.98398 101.397 3.28103 99.3885 1.66063L96.2489 5.552ZM100.153 9.488L98.8598 4.65809L94.7958 5.74609L96.0889 10.576L97.3819 15.4059L101.446 14.3179L100.153 9.488ZM96.0889 10.576L96.2856 15.5721L100.35 15.4121L100.153 10.416L99.9562 5.41987L95.8922 5.57987L96.0889 10.576ZM100.153 10.416H95.1529V16.624H100.153H105.153V10.416H100.153ZM100.153 16.624L99.9557 11.6279L95.0917 11.8199L95.2889 16.816L95.4861 21.8121L100.35 21.6201L100.153 16.624ZM95.2889 16.816L93.0007 21.2617C94.9409 22.2603 97.0567 22.9459 99.3023 23.3636L100.217 18.448L101.131 13.5323C99.7077 13.2675 98.5382 12.865 97.5771 12.3703L95.2889 16.816ZM90.6169 7.28L85.6311 7.65629C85.73 8.96675 85.9017 10.2974 86.1427 11.647L91.0649 10.768L95.987 9.88905C95.8013 8.84924 95.6745 7.85459 95.6027 6.90371L90.6169 7.28ZM91.0649 10.768L91.2261 15.7654L94.2021 15.6694L94.0409 10.672L93.8797 5.6746L90.9037 5.7706L91.0649 10.768ZM94.0409 10.672L98.088 7.73586C96.9407 6.15442 95.4261 4.6999 93.706 3.34841L90.6169 7.28L87.5278 11.2116C88.7943 12.2068 89.5624 13.0136 89.9938 13.6081L94.0409 10.672ZM95.2249 22.192L91.2249 25.192C91.3829 25.4027 91.7536 25.868 92.3665 26.2963C92.9849 26.7285 94.3152 27.4299 96.08 27.1274C97.8627 26.8218 98.8942 25.6984 99.3447 25.0502C99.7834 24.4191 99.9706 23.8368 100.045 23.5793C100.201 23.0396 100.229 22.5945 100.237 22.4689C100.249 22.2771 100.248 22.1185 100.246 22.0234C100.24 21.6954 100.205 21.3722 100.185 21.199C100.137 20.7682 100.052 20.1718 99.9445 19.459L95.0009 20.208L90.0573 20.957C90.1626 21.6521 90.2224 22.0905 90.2484 22.321C90.2662 22.4785 90.2511 22.3926 90.2477 22.2086C90.2466 22.1495 90.2454 22.0211 90.2557 21.8536C90.262 21.7523 90.287 21.3258 90.4396 20.7987C90.5123 20.5475 90.6974 19.9701 91.1337 19.3424C91.5819 18.6977 92.6107 17.5762 94.3904 17.2711C96.1524 16.9691 97.4795 17.6696 98.0945 18.0993C98.7039 18.5252 99.0709 18.9867 99.2249 19.192L95.2249 22.192ZM95.0009 20.208L99.9257 19.344C99.7239 18.1938 99.5663 17.1563 99.4503 16.2278L94.4889 16.848L89.5275 17.4682C89.6674 18.5877 89.8512 19.7902 90.0761 21.072L95.0009 20.208ZM94.4889 16.848L94.235 11.8545L92.347 11.9505L92.6009 16.944L92.8548 21.9375L94.7428 21.8415L94.4889 16.848ZM92.6009 16.944L87.8977 18.641C88.7576 21.0244 89.8186 23.1917 91.1316 25.0634L95.2249 22.192L99.3182 19.3206C98.6258 18.3337 97.9374 17.0023 97.3041 15.247L92.6009 16.944ZM130.585 6.8L135.581 7.00692C135.637 5.64611 135.136 4.32119 134.193 3.3384C133.25 2.3556 131.947 1.8 130.585 1.8V6.8ZM130.585 30V35C131.947 35 133.25 34.4444 134.193 33.4616C135.136 32.4788 135.637 31.1539 135.581 29.7931L130.585 30ZM119.129 30L114.558 32.026C115.359 33.8342 117.151 35 119.129 35V30ZM111.385 12.528L115.956 10.502C114.986 8.31394 112.602 7.11997 110.269 7.65412C107.936 8.18827 106.309 10.3007 106.388 12.6927L111.385 12.528ZM111.961 30V35C113.316 35 114.612 34.4503 115.554 33.4768C116.496 32.5033 117.003 31.1892 116.958 29.8353L111.961 30ZM103.737 30L98.7411 29.794C98.685 31.1547 99.1863 32.4793 100.129 33.4619C101.072 34.4445 102.375 35 103.737 35V30ZM103.737 6.8V1.8C102.375 1.8 101.072 2.35548 100.129 3.33807C99.1863 4.32066 98.685 5.64534 98.7411 7.00601L103.737 6.8ZM115.513 6.8L120.101 4.81265C119.309 2.98373 117.506 1.8 115.513 1.8V6.8ZM123.289 24.752L118.701 26.7393C119.654 28.9405 122.037 30.1544 124.378 29.632C126.719 29.1096 128.359 26.9982 128.287 24.6006L123.289 24.752ZM122.745 6.8V1.8C121.393 1.8 120.098 2.34779 119.156 3.31842C118.215 4.28905 117.706 5.59972 117.747 6.95144L122.745 6.8ZM130.585 6.8L125.589 6.59307C125.437 10.2761 125.361 14.2071 125.361 18.384H130.361H135.361C135.361 14.3263 135.434 10.5345 135.581 7.00692L130.585 6.8ZM130.361 18.384H125.361C125.361 22.5819 125.437 26.5235 125.589 30.2069L130.585 30L135.581 29.7931C135.434 26.2658 135.361 22.4634 135.361 18.384H130.361ZM130.585 30V25H119.129V30V35H130.585V30ZM119.129 30L123.7 27.974L115.956 10.502L111.385 12.528L106.814 14.554L114.558 32.026L119.129 30ZM111.385 12.528L106.388 12.6927L106.964 30.1647L111.961 30L116.958 29.8353L116.382 12.3633L111.385 12.528ZM111.961 30V25H103.737V30V35H111.961V30ZM103.737 30L108.733 30.206C108.906 26.0086 108.993 22.0672 108.993 18.384H103.993H98.9929C98.9929 21.9114 98.9094 25.7141 98.7411 29.794L103.737 30ZM103.993 18.384H108.993C108.993 14.7217 108.906 10.791 108.733 6.59399L103.737 6.8L98.7411 7.00601C98.9094 11.0863 98.9929 14.8783 98.9929 18.384H103.993ZM103.737 6.8V11.8H115.513V6.8V1.8H103.737V6.8ZM115.513 6.8L110.925 8.78735L118.701 26.7393L123.289 24.752L127.877 22.7647L120.101 4.81265L115.513 6.8ZM123.289 24.752L128.287 24.6006L127.743 6.64855L122.745 6.8L117.747 6.95144L118.291 24.9034L123.289 24.752ZM122.745 6.8V11.8H130.585V6.8V1.8H122.745V6.8ZM158.423 12.752V17.752C161.185 17.752 163.423 15.5134 163.423 12.752H158.423ZM141.015 12.752V7.752C138.254 7.752 136.015 9.99057 136.015 12.752H141.015ZM141.015 16.112H136.015C136.015 18.8352 138.194 21.0577 140.917 21.111L141.015 16.112ZM157.367 15.952H162.367C162.367 14.5973 161.817 13.3007 160.844 12.3587C159.87 11.4167 158.556 10.9101 157.202 10.9547L157.367 15.952ZM157.367 22.224L157.175 27.2203C158.533 27.2726 159.854 26.7694 160.834 25.8268C161.814 24.8842 162.367 23.5834 162.367 22.224H157.367ZM141.015 22.032L140.899 17.0334C138.183 17.0965 136.015 19.3159 136.015 22.032H141.015ZM141.015 30V35C143.777 35 146.015 32.7614 146.015 30H141.015ZM133.463 30L128.467 29.794C128.411 31.1547 128.913 32.4793 129.855 33.4619C130.798 34.4445 132.101 35 133.463 35V30ZM133.463 6.768V1.768C132.101 1.768 130.798 2.32348 129.855 3.30607C128.913 4.28866 128.411 5.61334 128.467 6.97401L133.463 6.768ZM158.423 6.768H163.423C163.423 4.00658 161.185 1.768 158.423 1.768V6.768ZM158.423 12.752V7.752H141.015V12.752V17.752H158.423V12.752ZM141.015 12.752H136.015V16.112H141.015H146.015V12.752H141.015ZM141.015 16.112L140.917 21.111C142.056 21.1334 143.728 21.144 145.911 21.144V16.144V11.144C143.742 11.144 142.15 11.1333 141.113 11.113L141.015 16.112ZM145.911 16.144V21.144C149.723 21.144 153.596 21.079 157.532 20.9493L157.367 15.952L157.202 10.9547C153.373 11.081 149.609 11.144 145.911 11.144V16.144ZM157.367 15.952H152.367V22.224H157.367H162.367V15.952H157.367ZM157.367 22.224L157.559 17.2277C153.606 17.0756 149.446 17 145.079 17V22V27C149.331 27 153.363 27.0737 157.175 27.2203L157.367 22.224ZM145.079 22V17C143.277 17 141.876 17.0106 140.899 17.0334L141.015 22.032L141.131 27.0306C141.989 27.0107 143.297 27 145.079 27V22ZM141.015 22.032H136.015V30H141.015H146.015V22.032H141.015ZM141.015 30V25H133.463V30V35H141.015V30ZM133.463 30L138.459 30.206C138.632 26.0086 138.719 22.0672 138.719 18.384H133.719H128.719C128.719 21.9114 128.636 25.7141 128.467 29.794L133.463 30ZM133.719 18.384H138.719C138.719 14.7008 138.632 10.7594 138.459 6.56199L133.463 6.768L128.467 6.97401C128.636 11.0539 128.719 14.8566 128.719 18.384H133.719ZM133.463 6.768V11.768H158.423V6.768V1.768H133.463V6.768ZM158.423 6.768H153.423V12.752H158.423H163.423V6.768H158.423ZM187.209 13.488L187.049 18.4855C188.402 18.5286 189.715 18.0212 190.687 17.0794C191.66 16.1375 192.209 14.8417 192.209 13.488H187.209ZM177.449 13.296L177.482 8.29611C176.151 8.28711 174.87 8.80991 173.925 9.74854C172.98 10.6872 172.449 11.9641 172.449 13.296H177.449ZM177.449 30V35C180.21 35 182.449 32.7614 182.449 30H177.449ZM169.449 30H164.449C164.449 32.7614 166.687 35 169.449 35V30ZM169.449 13.296H174.449C174.449 11.9641 173.917 10.6873 172.972 9.74862C172.027 8.80999 170.747 8.28717 169.415 8.29611L169.449 13.296ZM159.721 13.488H154.721C154.721 14.842 155.27 16.1382 156.243 17.0801C157.215 18.022 158.529 18.5291 159.882 18.4854L159.721 13.488ZM159.721 6.768V1.768C156.959 1.768 154.721 4.00658 154.721 6.768H159.721ZM187.209 6.768H192.209C192.209 4.00658 189.97 1.768 187.209 1.768V6.768ZM187.209 13.488L187.368 8.49053C183.979 8.38262 180.684 8.31775 177.482 8.29611L177.449 13.296L177.415 18.2959C180.528 18.3169 183.739 18.38 187.049 18.4855L187.209 13.488ZM177.449 13.296H172.449V30H177.449H182.449V13.296H177.449ZM177.449 30V25H169.449V30V35H177.449V30ZM169.449 30H174.449V13.296H169.449H164.449V30H169.449ZM169.449 13.296L169.415 8.29611C166.192 8.31774 162.907 8.38262 159.559 8.4906L159.721 13.488L159.882 18.4854C163.148 18.3801 166.348 18.3169 169.482 18.2959L169.449 13.296ZM159.721 13.488H164.721V6.768H159.721H154.721V13.488H159.721ZM159.721 6.768V11.768H187.209V6.768V1.768H159.721V6.768ZM187.209 6.768H182.209V13.488H187.209H192.209V6.768H187.209Z" fill="white" mask="url(#path-1-outside-1_1_2142)"/>
</svg>
